<svg width="3134" height="294" viewBox="0 0 3134 294" fill="none" xmlns="http://www.w3.org/2000/svg">
<mask id="path-1-outside-1_8001_2" maskUnits="userSpaceOnUse" x="16" y="53" width="516" height="186" fill="black">
<rect fill="white" x="16" y="53" width="516" height="186"/>
<path d="M21.5501 231V58.599H57.4282V231H21.5501ZM166.693 230.301C158.461 232.708 151.977 233.912 147.24 233.912C135.979 233.912 127.243 232.32 121.03 229.136C114.818 225.952 110.158 221.642 107.052 216.206C103.945 210.692 102.392 202.616 102.392 191.977V124.647H88.0643V103.097H102.392V81.5469L136.872 77.5864V103.097H164.247V124.647H136.872V187.434C136.872 196.675 138.503 202.927 141.765 206.188C145.027 209.372 149.803 210.964 156.093 210.964C159.044 210.964 162.577 210.421 166.693 209.333V230.301ZM301.585 226.69C285.199 231.505 269.668 233.912 254.99 233.912C241.09 233.912 228.897 231.349 218.413 226.224C208.007 221.021 199.97 212.944 194.301 201.995C188.709 190.967 185.914 179.008 185.914 166.117C185.914 154.157 188.282 143.13 193.019 133.034C197.834 122.861 204.784 114.862 213.87 109.038C223.034 103.136 234.295 100.185 247.652 100.185C264.038 100.185 277.123 105.388 286.908 115.794C296.693 126.2 301.585 145.576 301.585 173.921H222.258C223.034 182.541 224.976 189.336 228.082 194.307C231.266 199.277 235.537 203.237 240.896 206.188C246.254 209.062 253.437 210.498 262.446 210.498C274.017 210.498 287.063 207.819 301.585 202.461V226.69ZM221.792 154.468H267.688C267.688 142.742 265.707 134.354 261.747 129.307C257.864 124.259 252.816 121.735 246.603 121.735C239.847 121.735 234.295 124.531 229.946 130.122C225.597 135.636 222.879 143.751 221.792 154.468ZM337.23 231V103.097H370.313V127.21C374.662 119.444 380.369 112.998 387.436 107.873C394.503 102.748 403.162 100.185 413.413 100.185C419.626 100.185 425.023 101.156 429.605 103.097C434.187 104.961 438.225 107.951 441.719 112.067C445.292 116.105 447.583 121.153 448.592 127.21C454.96 117.58 461.406 110.669 467.929 106.475C474.53 102.282 482.529 100.185 491.925 100.185C502.332 100.185 510.757 103.252 517.203 109.387C523.726 115.445 526.988 125.268 526.988 138.859V231H493.906V150.158C493.906 140.606 492.353 134.432 489.246 131.636C486.218 128.841 482.801 127.443 478.995 127.443C473.792 127.443 468.628 129.307 463.503 133.034C458.455 136.762 453.485 142.353 448.592 149.808V231H415.51V150.158C415.51 140.684 413.995 134.51 410.967 131.636C408.016 128.763 404.444 127.326 400.25 127.326C395.202 127.326 390.154 129.19 385.107 132.918C380.137 136.645 375.205 142.276 370.313 149.808V231H337.23Z"/>
</mask>
<path d="M21.5501 231V58.599H57.4282V231H21.5501ZM166.693 230.301C158.461 232.708 151.977 233.912 147.24 233.912C135.979 233.912 127.243 232.32 121.03 229.136C114.818 225.952 110.158 221.642 107.052 216.206C103.945 210.692 102.392 202.616 102.392 191.977V124.647H88.0643V103.097H102.392V81.5469L136.872 77.5864V103.097H164.247V124.647H136.872V187.434C136.872 196.675 138.503 202.927 141.765 206.188C145.027 209.372 149.803 210.964 156.093 210.964C159.044 210.964 162.577 210.421 166.693 209.333V230.301ZM301.585 226.69C285.199 231.505 269.668 233.912 254.99 233.912C241.09 233.912 228.897 231.349 218.413 226.224C208.007 221.021 199.97 212.944 194.301 201.995C188.709 190.967 185.914 179.008 185.914 166.117C185.914 154.157 188.282 143.13 193.019 133.034C197.834 122.861 204.784 114.862 213.87 109.038C223.034 103.136 234.295 100.185 247.652 100.185C264.038 100.185 277.123 105.388 286.908 115.794C296.693 126.2 301.585 145.576 301.585 173.921H222.258C223.034 182.541 224.976 189.336 228.082 194.307C231.266 199.277 235.537 203.237 240.896 206.188C246.254 209.062 253.437 210.498 262.446 210.498C274.017 210.498 287.063 207.819 301.585 202.461V226.69ZM221.792 154.468H267.688C267.688 142.742 265.707 134.354 261.747 129.307C257.864 124.259 252.816 121.735 246.603 121.735C239.847 121.735 234.295 124.531 229.946 130.122C225.597 135.636 222.879 143.751 221.792 154.468ZM337.23 231V103.097H370.313V127.21C374.662 119.444 380.369 112.998 387.436 107.873C394.503 102.748 403.162 100.185 413.413 100.185C419.626 100.185 425.023 101.156 429.605 103.097C434.187 104.961 438.225 107.951 441.719 112.067C445.292 116.105 447.583 121.153 448.592 127.21C454.96 117.58 461.406 110.669 467.929 106.475C474.53 102.282 482.529 100.185 491.925 100.185C502.332 100.185 510.757 103.252 517.203 109.387C523.726 115.445 526.988 125.268 526.988 138.859V231H493.906V150.158C493.906 140.606 492.353 134.432 489.246 131.636C486.218 128.841 482.801 127.443 478.995 127.443C473.792 127.443 468.628 129.307 463.503 133.034C458.455 136.762 453.485 142.353 448.592 149.808V231H415.51V150.158C415.51 140.684 413.995 134.51 410.967 131.636C408.016 128.763 404.444 127.326 400.25 127.326C395.202 127.326 390.154 129.19 385.107 132.918C380.137 136.645 375.205 142.276 370.313 149.808V231H337.23Z" fill="#DCA413"/>
<path d="M21.5501 231H16.5501V236H21.5501V231ZM21.5501 58.599V53.599H16.5501V58.599H21.5501ZM57.4282 58.599H62.4282V53.599H57.4282V58.599ZM57.4282 231V236H62.4282V231H57.4282ZM26.5501 231V58.599H16.5501V231H26.5501ZM21.5501 63.599H57.4282V53.599H21.5501V63.599ZM52.4282 58.599V231H62.4282V58.599H52.4282ZM57.4282 226H21.5501V236H57.4282V226ZM166.693 230.301L168.097 235.1L171.693 234.048V230.301H166.693ZM121.03 229.136L118.75 233.586L121.03 229.136ZM107.052 216.206L102.695 218.66L102.703 218.674L102.711 218.687L107.052 216.206ZM102.392 124.647H107.392V119.647H102.392V124.647ZM88.0643 124.647H83.0643V129.647H88.0643V124.647ZM88.0643 103.097V98.0971H83.0643V103.097H88.0643ZM102.392 103.097V108.097H107.392V103.097H102.392ZM102.392 81.5469L101.822 76.5796L97.3922 77.0884V81.5469H102.392ZM136.872 77.5864H141.872V71.9792L136.302 72.619L136.872 77.5864ZM136.872 103.097H131.872V108.097H136.872V103.097ZM164.247 103.097H169.247V98.0971H164.247V103.097ZM164.247 124.647V129.647H169.247V124.647H164.247ZM136.872 124.647V119.647H131.872V124.647H136.872ZM141.765 206.188L138.229 209.724L138.251 209.745L138.272 209.766L141.765 206.188ZM166.693 209.333H171.693V202.841L165.416 204.499L166.693 209.333ZM165.29 225.502C157.209 227.865 151.264 228.912 147.24 228.912V238.912C152.69 238.912 159.714 237.552 168.097 235.1L165.29 225.502ZM147.24 228.912C136.339 228.912 128.513 227.353 123.311 224.687L118.75 233.586C125.973 237.288 135.619 238.912 147.24 238.912V228.912ZM123.311 224.687C117.859 221.892 113.964 218.224 111.393 213.725L102.711 218.687C106.352 225.06 111.776 230.012 118.75 233.586L123.311 224.687ZM111.408 213.752C108.92 209.336 107.392 202.273 107.392 191.977H97.3922C97.3922 202.959 98.9707 212.049 102.695 218.66L111.408 213.752ZM107.392 191.977V124.647H97.3922V191.977H107.392ZM102.392 119.647H88.0643V129.647H102.392V119.647ZM93.0643 124.647V103.097H83.0643V124.647H93.0643ZM88.0643 108.097H102.392V98.0971H88.0643V108.097ZM107.392 103.097V81.5469H97.3922V103.097H107.392ZM102.963 86.5143L137.443 82.5537L136.302 72.619L101.822 76.5796L102.963 86.5143ZM131.872 77.5864V103.097H141.872V77.5864H131.872ZM136.872 108.097H164.247V98.0971H136.872V108.097ZM159.247 103.097V124.647H169.247V103.097H159.247ZM164.247 119.647H136.872V129.647H164.247V119.647ZM131.872 124.647V187.434H141.872V124.647H131.872ZM131.872 187.434C131.872 196.848 133.447 204.941 138.229 209.724L145.3 202.653C143.56 200.912 141.872 196.503 141.872 187.434H131.872ZM138.272 209.766C142.775 214.162 149.002 215.964 156.093 215.964V205.964C150.603 205.964 147.278 204.582 145.258 202.61L138.272 209.766ZM156.093 215.964C159.619 215.964 163.604 215.321 167.97 214.168L165.416 204.499C161.55 205.52 158.469 205.964 156.093 205.964V215.964ZM161.693 209.333V230.301H171.693V209.333H161.693ZM301.585 226.69L302.995 231.487L306.585 230.432V226.69H301.585ZM218.413 226.224L216.177 230.696L216.197 230.706L216.217 230.716L218.413 226.224ZM194.301 201.995L189.841 204.256L189.851 204.275L189.86 204.294L194.301 201.995ZM193.019 133.034L188.5 130.895L188.496 130.903L188.493 130.91L193.019 133.034ZM213.87 109.038L216.569 113.247L216.578 113.241L213.87 109.038ZM301.585 173.921V178.921H306.585V173.921H301.585ZM222.258 173.921V168.921H216.787L217.278 174.37L222.258 173.921ZM228.082 194.307L223.842 196.957L223.857 196.98L223.872 197.004L228.082 194.307ZM240.896 206.188L238.483 210.568L238.508 210.581L238.533 210.595L240.896 206.188ZM301.585 202.461H306.585V195.286L299.854 197.77L301.585 202.461ZM221.792 154.468L216.817 153.963L216.259 159.468H221.792V154.468ZM267.688 154.468V159.468H272.688V154.468H267.688ZM261.747 129.307L257.784 132.355L257.798 132.374L257.813 132.393L261.747 129.307ZM229.946 130.122L233.872 133.219L233.882 133.205L233.892 133.192L229.946 130.122ZM300.176 221.893C284.175 226.595 269.12 228.912 254.99 228.912V238.912C270.215 238.912 286.224 236.415 302.995 231.487L300.176 221.893ZM254.99 228.912C241.707 228.912 230.291 226.465 220.61 221.732L216.217 230.716C227.504 236.234 240.473 238.912 254.99 238.912V228.912ZM220.65 221.752C211.248 217.051 203.954 209.766 198.741 199.696L189.86 204.294C195.985 216.123 204.767 224.991 216.177 230.696L220.65 221.752ZM198.76 199.734C193.539 189.437 190.914 178.257 190.914 166.117H180.914C180.914 179.759 183.879 192.497 189.841 204.256L198.76 199.734ZM190.914 166.117C190.914 154.837 193.143 144.542 197.546 135.158L188.493 130.91C183.422 141.718 180.914 153.477 180.914 166.117H190.914ZM197.539 135.173C201.971 125.809 208.307 118.544 216.569 113.247L211.172 104.829C201.262 111.181 193.698 119.913 188.5 130.895L197.539 135.173ZM216.578 113.241C224.769 107.966 235.037 105.185 247.652 105.185V95.1849C233.552 95.1849 221.299 98.306 211.163 104.834L216.578 113.241ZM247.652 105.185C262.881 105.185 274.568 109.969 283.265 119.219L290.551 112.369C279.678 100.807 265.195 95.1849 247.652 95.1849V105.185ZM283.265 119.219C291.646 128.132 296.585 145.767 296.585 173.921H306.585C306.585 145.385 301.74 124.268 290.551 112.369L283.265 119.219ZM301.585 168.921H222.258V178.921H301.585V168.921ZM217.278 174.37C218.094 183.428 220.169 191.08 223.842 196.957L232.322 191.657C229.782 187.593 227.975 181.655 227.237 173.473L217.278 174.37ZM223.872 197.004C227.522 202.702 232.422 207.23 238.483 210.568L243.308 201.808C238.652 199.244 235.01 195.851 232.292 191.609L223.872 197.004ZM238.533 210.595C244.884 214.001 252.98 215.498 262.446 215.498V205.498C253.895 205.498 247.624 204.123 243.258 201.782L238.533 210.595ZM262.446 215.498C274.769 215.498 288.416 212.65 303.316 207.151L299.854 197.77C285.711 202.989 273.264 205.498 262.446 205.498V215.498ZM296.585 202.461V226.69H306.585V202.461H296.585ZM221.792 159.468H267.688V149.468H221.792V159.468ZM272.688 154.468C272.688 142.436 270.706 132.625 265.68 126.22L257.813 132.393C260.709 136.084 262.688 143.047 262.688 154.468H272.688ZM265.71 126.258C260.908 120.016 254.413 116.735 246.603 116.735V126.735C251.219 126.735 254.819 128.502 257.784 132.355L265.71 126.258ZM246.603 116.735C238.219 116.735 231.242 120.312 225.999 127.052L233.892 133.192C237.347 128.75 241.475 126.735 246.603 126.735V116.735ZM226.02 127.026C220.847 133.585 217.953 142.768 216.817 153.963L226.766 154.973C227.805 144.734 230.347 137.687 233.872 133.219L226.02 127.026ZM337.23 231H332.23V236H337.23V231ZM337.23 103.097V98.0971H332.23V103.097H337.23ZM370.313 103.097H375.313V98.0971H370.313V103.097ZM370.313 127.21H365.313V146.372L374.675 129.653L370.313 127.21ZM429.605 103.097L427.654 107.701L427.687 107.715L427.721 107.729L429.605 103.097ZM441.719 112.067L437.908 115.303L437.941 115.341L437.974 115.379L441.719 112.067ZM448.592 127.21L443.66 128.032L445.75 140.572L452.763 129.968L448.592 127.21ZM467.929 106.475L465.248 102.255L465.237 102.262L465.225 102.269L467.929 106.475ZM517.203 109.387L513.756 113.009L513.778 113.03L513.801 113.051L517.203 109.387ZM526.988 231V236H531.988V231H526.988ZM493.906 231H488.906V236H493.906V231ZM489.246 131.636L485.855 135.31L485.878 135.332L485.901 135.353L489.246 131.636ZM463.503 133.034L460.562 128.991L460.547 129.001L460.532 129.012L463.503 133.034ZM448.592 149.808L444.412 147.065L443.592 148.314V149.808H448.592ZM448.592 231V236H453.592V231H448.592ZM415.51 231H410.51V236H415.51V231ZM410.967 131.636L407.479 135.219L407.502 135.241L407.525 135.264L410.967 131.636ZM385.107 132.918L382.136 128.896L382.121 128.907L382.107 128.918L385.107 132.918ZM370.313 149.808L366.12 147.085L365.313 148.327V149.808H370.313ZM370.313 231V236H375.313V231H370.313ZM342.23 231V103.097H332.23V231H342.23ZM337.23 108.097H370.313V98.0971H337.23V108.097ZM365.313 103.097V127.21H375.313V103.097H365.313ZM374.675 129.653C378.677 122.506 383.903 116.612 390.372 111.921L384.501 103.826C376.836 109.385 370.646 116.382 365.95 124.767L374.675 129.653ZM390.372 111.921C396.444 107.517 404.027 105.185 413.413 105.185V95.1849C402.297 95.1849 392.563 97.9783 384.501 103.826L390.372 111.921ZM413.413 105.185C419.117 105.185 423.822 106.077 427.654 107.701L431.555 98.4933C426.224 96.2341 420.135 95.1849 413.413 95.1849V105.185ZM427.721 107.729C431.49 109.262 434.885 111.743 437.908 115.303L445.531 108.83C441.564 104.158 436.883 100.66 431.489 98.4656L427.721 107.729ZM437.974 115.379C440.842 118.621 442.783 122.768 443.66 128.032L453.524 126.388C452.382 119.537 449.741 113.588 445.464 108.754L437.974 115.379ZM452.763 129.968C458.918 120.66 464.907 114.362 470.633 110.681L465.225 102.269C457.904 106.976 451.002 114.501 444.422 124.452L452.763 129.968ZM470.61 110.696C476.261 107.106 483.285 105.185 491.925 105.185V95.1849C481.772 95.1849 472.799 97.4575 465.248 102.255L470.61 110.696ZM491.925 105.185C501.281 105.185 508.396 107.907 513.756 113.009L520.65 105.766C513.119 98.5974 503.382 95.1849 491.925 95.1849V105.185ZM513.801 113.051C518.873 117.761 521.988 125.932 521.988 138.859H531.988C531.988 124.605 528.58 113.128 520.605 105.723L513.801 113.051ZM521.988 138.859V231H531.988V138.859H521.988ZM526.988 226H493.906V236H526.988V226ZM498.906 231V150.158H488.906V231H498.906ZM498.906 150.158C498.906 145.154 498.503 140.775 497.59 137.144C496.689 133.564 495.175 130.246 492.591 127.92L485.901 135.353C486.423 135.823 487.239 136.989 487.892 139.583C488.532 142.126 488.906 145.61 488.906 150.158H498.906ZM492.638 127.962C488.769 124.391 484.167 122.443 478.995 122.443V132.443C481.434 132.443 483.666 133.29 485.855 135.31L492.638 127.962ZM478.995 122.443C472.523 122.443 466.352 124.78 460.562 128.991L466.443 137.078C470.904 133.834 475.062 132.443 478.995 132.443V122.443ZM460.532 129.012C454.854 133.205 449.503 139.307 444.412 147.065L452.772 152.552C457.466 145.4 462.055 140.318 466.473 137.056L460.532 129.012ZM443.592 149.808V231H453.592V149.808H443.592ZM448.592 226H415.51V236H448.592V226ZM420.51 231V150.158H410.51V231H420.51ZM420.51 150.158C420.51 145.195 420.117 140.847 419.23 137.231C418.356 133.665 416.892 130.366 414.408 128.009L407.525 135.264C408.07 135.78 408.878 137.005 409.518 139.613C410.145 142.17 410.51 145.647 410.51 150.158H420.51ZM414.455 128.054C410.552 124.253 405.72 122.326 400.25 122.326V132.326C403.167 132.326 405.48 133.273 407.479 135.219L414.455 128.054ZM400.25 122.326C393.896 122.326 387.832 124.69 382.136 128.896L388.077 136.94C392.477 133.691 396.508 132.326 400.25 132.326V122.326ZM382.107 128.918C376.508 133.117 371.202 139.26 366.12 147.085L374.506 152.532C379.209 145.291 383.765 140.174 388.107 136.918L382.107 128.918ZM365.313 149.808V231H375.313V149.808H365.313ZM370.313 226H337.23V236H370.313V226Z" fill="#1B1B1B" mask="url(#path-1-outside-1_8001_2)"/>
<mask id="path-3-outside-2_8001_2" maskUnits="userSpaceOnUse" x="1633" y="39" width="1506" height="244" fill="black">
<rect fill="white" x="1633" y="39" width="1506" height="244"/>
<path d="M1638.88 229.486V199.898C1652.16 205.489 1662.06 208.829 1668.59 209.916C1675.19 211.003 1681.24 211.547 1686.76 211.547C1696.7 211.547 1704.11 209.295 1709.01 204.79C1713.9 200.286 1716.35 194.889 1716.35 188.599C1716.35 183.784 1715.03 179.435 1712.39 175.552C1709.74 171.747 1703.07 166.816 1692.35 160.758L1680.82 154.351C1664.35 145.11 1653.21 136.568 1647.39 128.724C1641.48 120.881 1638.53 111.795 1638.53 101.466C1638.53 88.4973 1643.42 77.3922 1653.21 68.1509C1663.07 58.9096 1677.21 54.2889 1695.61 54.2889C1709.36 54.2889 1724.85 56.2692 1742.09 60.2298V87.8372C1724.54 81.2363 1710.6 77.9358 1700.27 77.9358C1691.73 77.9358 1685.2 79.8385 1680.7 83.6437C1676.27 87.3713 1674.06 91.8755 1674.06 97.1562C1674.06 101.194 1675.38 104.961 1678.02 108.455C1680.58 111.95 1687.22 116.726 1697.94 122.783L1710.29 129.656C1729.16 140.295 1741.2 149.537 1746.4 157.38C1751.52 165.301 1754.09 174.193 1754.09 184.056C1754.09 198.189 1748.73 210.265 1738.01 220.283C1727.37 230.301 1710.4 235.31 1687.11 235.31C1673.28 235.31 1657.21 233.369 1638.88 229.486ZM1863.93 231V206.887C1857.8 216.672 1850.97 223.622 1843.43 227.738C1835.9 231.854 1828.21 233.912 1820.37 233.912C1810.27 233.912 1801.58 230.689 1794.28 224.244C1787.05 217.72 1783.44 207.47 1783.44 193.491V103.097H1817.92V184.988C1817.92 191.977 1818.54 196.714 1819.79 199.199C1821.11 201.684 1822.85 203.587 1825.03 204.907C1827.28 206.149 1829.77 206.771 1832.48 206.771C1837.22 206.771 1842.15 205.218 1847.28 202.111C1852.4 198.927 1857.96 192.753 1863.93 183.59V103.097H1898.42V231H1863.93ZM2035.99 228.204C2021.7 232.01 2008.38 233.912 1996.03 233.912C1974.13 233.912 1957.67 227.467 1946.64 214.575C1935.61 201.606 1930.1 185.725 1930.1 166.932C1930.1 147.207 1935.92 131.17 1947.57 118.823C1959.22 106.398 1976.35 100.185 1998.94 100.185C2009.35 100.185 2021.35 101.855 2034.94 105.194V130.122C2020.8 125.54 2009.54 123.249 2001.16 123.249C1989.2 123.249 1980.46 127.792 1974.95 136.878C1969.43 145.887 1966.68 155.827 1966.68 166.699C1966.68 175.086 1968.27 182.93 1971.45 190.229C1974.64 197.452 1979.06 202.732 1984.73 206.072C1990.48 209.411 1996.92 211.081 2004.07 211.081C2014.4 211.081 2025.04 208.829 2035.99 204.324V228.204ZM2162.96 228.204C2148.67 232.01 2135.35 233.912 2123 233.912C2101.1 233.912 2084.64 227.467 2073.61 214.575C2062.58 201.606 2057.07 185.725 2057.07 166.932C2057.07 147.207 2062.9 131.17 2074.54 118.823C2086.19 106.398 2103.32 100.185 2125.91 100.185C2136.32 100.185 2148.32 101.855 2161.91 105.194V130.122C2147.78 125.54 2136.51 123.249 2128.13 123.249C2116.17 123.249 2107.43 127.792 2101.92 136.878C2096.4 145.887 2093.65 155.827 2093.65 166.699C2093.65 175.086 2095.24 182.93 2098.42 190.229C2101.61 197.452 2106.03 202.732 2111.7 206.072C2117.45 209.411 2123.9 211.081 2131.04 211.081C2141.37 211.081 2152.01 208.829 2162.96 204.324V228.204ZM2299.71 226.69C2283.33 231.505 2267.8 233.912 2253.12 233.912C2239.22 233.912 2227.03 231.349 2216.54 226.224C2206.14 221.021 2198.1 212.944 2192.43 201.995C2186.84 190.967 2184.04 179.008 2184.04 166.117C2184.04 154.157 2186.41 143.13 2191.15 133.034C2195.96 122.861 2202.91 114.862 2212 109.038C2221.16 103.136 2232.42 100.185 2245.78 100.185C2262.17 100.185 2275.25 105.388 2285.04 115.794C2294.82 126.2 2299.71 145.576 2299.71 173.921H2220.39C2221.16 182.541 2223.1 189.336 2226.21 194.307C2229.39 199.277 2233.67 203.237 2239.02 206.188C2244.38 209.062 2251.57 210.498 2260.57 210.498C2272.14 210.498 2285.19 207.819 2299.71 202.461V226.69ZM2219.92 154.468H2265.82C2265.82 142.742 2263.84 134.354 2259.87 129.307C2255.99 124.259 2250.94 121.735 2244.73 121.735C2237.98 121.735 2232.42 124.531 2228.07 130.122C2223.73 135.636 2221.01 143.751 2219.92 154.468ZM2331.98 226.923V201.645C2349.07 208.79 2363.66 212.362 2375.78 212.362C2382.23 212.362 2387.35 211.003 2391.16 208.285C2395.04 205.567 2396.98 202.111 2396.98 197.918C2396.98 194.268 2395.54 191.2 2392.67 188.715C2389.8 186.308 2385.41 183.939 2379.51 181.609L2367.86 176.95C2355.82 172.135 2346.93 166.816 2341.18 160.991C2335.44 155.244 2332.56 147.75 2332.56 138.509C2332.56 127.404 2336.87 118.24 2345.49 111.018C2354.19 103.796 2367.43 100.185 2385.22 100.185C2395.62 100.185 2408.01 101.699 2422.37 104.728V128.957C2408.55 124.142 2397.1 121.735 2388.01 121.735C2380.87 121.735 2375.51 122.978 2371.94 125.463C2368.36 127.87 2366.58 131.015 2366.58 134.898C2366.58 137.927 2367.74 140.606 2370.07 142.936C2372.32 145.265 2376.44 147.556 2382.42 149.808L2392.44 153.653C2408.98 159.943 2419.81 166.039 2424.94 171.941C2429.99 177.921 2432.51 185.065 2432.51 193.375C2432.51 204.169 2427.85 213.643 2418.53 221.798C2409.29 229.874 2395.82 233.912 2378.11 233.912C2363.04 233.912 2347.67 231.582 2331.98 226.923ZM2466.87 226.923V201.645C2483.96 208.79 2498.56 212.362 2510.67 212.362C2517.12 212.362 2522.24 211.003 2526.05 208.285C2529.93 205.567 2531.87 202.111 2531.87 197.918C2531.87 194.268 2530.44 191.2 2527.56 188.715C2524.69 186.308 2520.3 183.939 2514.4 181.609L2502.75 176.95C2490.71 172.135 2481.82 166.816 2476.08 160.991C2470.33 155.244 2467.46 147.75 2467.46 138.509C2467.46 127.404 2471.77 118.24 2480.39 111.018C2489.08 103.796 2502.32 100.185 2520.11 100.185C2530.51 100.185 2542.9 101.699 2557.27 104.728V128.957C2543.44 124.142 2531.99 121.735 2522.9 121.735C2515.76 121.735 2510.4 122.978 2506.83 125.463C2503.26 127.87 2501.47 131.015 2501.47 134.898C2501.47 137.927 2502.63 140.606 2504.96 142.936C2507.22 145.265 2511.33 147.556 2517.31 149.808L2527.33 153.653C2543.87 159.943 2554.7 166.039 2559.83 171.941C2564.88 177.921 2567.4 185.065 2567.4 193.375C2567.4 204.169 2562.74 213.643 2553.42 221.798C2544.18 229.874 2530.71 233.912 2513 233.912C2497.94 233.912 2482.56 231.582 2466.87 226.923ZM2608.75 231V124.647H2591.16V103.097H2608.75V93.8946C2608.75 76.0332 2612.83 63.2973 2620.99 55.6868C2629.22 47.9986 2640.87 44.1545 2655.93 44.1545C2666.1 44.1545 2676.59 45.6301 2687.38 48.5811V71.8785C2677.6 67.7626 2668.82 65.7047 2661.06 65.7047C2657.41 65.7047 2654.26 66.4424 2651.62 67.9179C2649.06 69.3158 2647 71.7232 2645.45 75.1401C2643.97 78.4794 2643.23 84.3038 2643.23 92.6132V103.097H2675.62V124.647H2643.23V231H2608.75ZM2783.25 231V206.887C2777.12 216.672 2770.28 223.622 2762.75 227.738C2755.22 231.854 2747.53 233.912 2739.69 233.912C2729.59 233.912 2720.89 230.689 2713.59 224.244C2706.37 217.72 2702.76 207.47 2702.76 193.491V103.097H2737.24V184.988C2737.24 191.977 2737.86 196.714 2739.1 199.199C2740.42 201.684 2742.17 203.587 2744.35 204.907C2746.6 206.149 2749.08 206.771 2751.8 206.771C2756.54 206.771 2761.47 205.218 2766.59 202.111C2771.72 198.927 2777.27 192.753 2783.25 183.59V103.097H2817.73V231H2783.25ZM2860.95 231V47.0667H2895.43V231H2860.95ZM2938.53 231V47.0667H2973.01V231H2938.53ZM3016.58 277.012L3045.58 231L2998.17 103.097H3035.21L3066.9 188.599L3104.52 103.097H3130.73L3051.75 277.012H3016.58Z"/>
</mask>
<path d="M1638.88 229.486V199.898C1652.16 205.489 1662.06 208.829 1668.59 209.916C1675.19 211.003 1681.24 211.547 1686.76 211.547C1696.7 211.547 1704.11 209.295 1709.01 204.79C1713.9 200.286 1716.35 194.889 1716.35 188.599C1716.35 183.784 1715.03 179.435 1712.39 175.552C1709.74 171.747 1703.07 166.816 1692.35 160.758L1680.82 154.351C1664.35 145.11 1653.21 136.568 1647.39 128.724C1641.48 120.881 1638.53 111.795 1638.53 101.466C1638.53 88.4973 1643.42 77.3922 1653.21 68.1509C1663.07 58.9096 1677.21 54.2889 1695.61 54.2889C1709.36 54.2889 1724.85 56.2692 1742.09 60.2298V87.8372C1724.54 81.2363 1710.6 77.9358 1700.27 77.9358C1691.73 77.9358 1685.2 79.8385 1680.7 83.6437C1676.27 87.3713 1674.06 91.8755 1674.06 97.1562C1674.06 101.194 1675.38 104.961 1678.02 108.455C1680.58 111.95 1687.22 116.726 1697.94 122.783L1710.29 129.656C1729.16 140.295 1741.2 149.537 1746.4 157.38C1751.52 165.301 1754.09 174.193 1754.09 184.056C1754.09 198.189 1748.73 210.265 1738.01 220.283C1727.37 230.301 1710.4 235.31 1687.11 235.31C1673.28 235.31 1657.21 233.369 1638.88 229.486ZM1863.93 231V206.887C1857.8 216.672 1850.97 223.622 1843.43 227.738C1835.9 231.854 1828.21 233.912 1820.37 233.912C1810.27 233.912 1801.58 230.689 1794.28 224.244C1787.05 217.72 1783.44 207.47 1783.44 193.491V103.097H1817.92V184.988C1817.92 191.977 1818.54 196.714 1819.79 199.199C1821.11 201.684 1822.85 203.587 1825.03 204.907C1827.28 206.149 1829.77 206.771 1832.48 206.771C1837.22 206.771 1842.15 205.218 1847.28 202.111C1852.4 198.927 1857.96 192.753 1863.93 183.59V103.097H1898.42V231H1863.93ZM2035.99 228.204C2021.7 232.01 2008.38 233.912 1996.03 233.912C1974.13 233.912 1957.67 227.467 1946.64 214.575C1935.61 201.606 1930.1 185.725 1930.1 166.932C1930.1 147.207 1935.92 131.17 1947.57 118.823C1959.22 106.398 1976.35 100.185 1998.94 100.185C2009.35 100.185 2021.35 101.855 2034.94 105.194V130.122C2020.8 125.54 2009.54 123.249 2001.16 123.249C1989.2 123.249 1980.46 127.792 1974.95 136.878C1969.43 145.887 1966.68 155.827 1966.68 166.699C1966.68 175.086 1968.27 182.93 1971.45 190.229C1974.64 197.452 1979.06 202.732 1984.73 206.072C1990.48 209.411 1996.92 211.081 2004.07 211.081C2014.4 211.081 2025.04 208.829 2035.99 204.324V228.204ZM2162.96 228.204C2148.67 232.01 2135.35 233.912 2123 233.912C2101.1 233.912 2084.64 227.467 2073.61 214.575C2062.58 201.606 2057.07 185.725 2057.07 166.932C2057.07 147.207 2062.9 131.17 2074.54 118.823C2086.19 106.398 2103.32 100.185 2125.91 100.185C2136.32 100.185 2148.32 101.855 2161.91 105.194V130.122C2147.78 125.54 2136.51 123.249 2128.13 123.249C2116.17 123.249 2107.43 127.792 2101.92 136.878C2096.4 145.887 2093.65 155.827 2093.65 166.699C2093.65 175.086 2095.24 182.93 2098.42 190.229C2101.61 197.452 2106.03 202.732 2111.7 206.072C2117.45 209.411 2123.9 211.081 2131.04 211.081C2141.37 211.081 2152.01 208.829 2162.96 204.324V228.204ZM2299.71 226.69C2283.33 231.505 2267.8 233.912 2253.12 233.912C2239.22 233.912 2227.03 231.349 2216.54 226.224C2206.14 221.021 2198.1 212.944 2192.43 201.995C2186.84 190.967 2184.04 179.008 2184.04 166.117C2184.04 154.157 2186.41 143.13 2191.15 133.034C2195.96 122.861 2202.91 114.862 2212 109.038C2221.16 103.136 2232.42 100.185 2245.78 100.185C2262.17 100.185 2275.25 105.388 2285.04 115.794C2294.82 126.2 2299.71 145.576 2299.71 173.921H2220.39C2221.16 182.541 2223.1 189.336 2226.21 194.307C2229.39 199.277 2233.67 203.237 2239.02 206.188C2244.38 209.062 2251.57 210.498 2260.57 210.498C2272.14 210.498 2285.19 207.819 2299.71 202.461V226.69ZM2219.92 154.468H2265.82C2265.82 142.742 2263.84 134.354 2259.87 129.307C2255.99 124.259 2250.94 121.735 2244.73 121.735C2237.98 121.735 2232.42 124.531 2228.07 130.122C2223.73 135.636 2221.01 143.751 2219.92 154.468ZM2331.98 226.923V201.645C2349.07 208.79 2363.66 212.362 2375.78 212.362C2382.23 212.362 2387.35 211.003 2391.16 208.285C2395.04 205.567 2396.98 202.111 2396.98 197.918C2396.98 194.268 2395.54 191.2 2392.67 188.715C2389.8 186.308 2385.41 183.939 2379.51 181.609L2367.86 176.95C2355.82 172.135 2346.93 166.816 2341.18 160.991C2335.44 155.244 2332.56 147.75 2332.56 138.509C2332.56 127.404 2336.87 118.24 2345.49 111.018C2354.19 103.796 2367.43 100.185 2385.22 100.185C2395.62 100.185 2408.01 101.699 2422.37 104.728V128.957C2408.55 124.142 2397.1 121.735 2388.01 121.735C2380.87 121.735 2375.51 122.978 2371.94 125.463C2368.36 127.87 2366.58 131.015 2366.58 134.898C2366.58 137.927 2367.74 140.606 2370.07 142.936C2372.32 145.265 2376.44 147.556 2382.42 149.808L2392.44 153.653C2408.98 159.943 2419.81 166.039 2424.94 171.941C2429.99 177.921 2432.51 185.065 2432.51 193.375C2432.51 204.169 2427.85 213.643 2418.53 221.798C2409.29 229.874 2395.82 233.912 2378.11 233.912C2363.04 233.912 2347.67 231.582 2331.98 226.923ZM2466.87 226.923V201.645C2483.96 208.79 2498.56 212.362 2510.67 212.362C2517.12 212.362 2522.24 211.003 2526.05 208.285C2529.93 205.567 2531.87 202.111 2531.87 197.918C2531.87 194.268 2530.44 191.2 2527.56 188.715C2524.69 186.308 2520.3 183.939 2514.4 181.609L2502.75 176.95C2490.71 172.135 2481.82 166.816 2476.08 160.991C2470.33 155.244 2467.46 147.75 2467.46 138.509C2467.46 127.404 2471.77 118.24 2480.39 111.018C2489.08 103.796 2502.32 100.185 2520.11 100.185C2530.51 100.185 2542.9 101.699 2557.27 104.728V128.957C2543.44 124.142 2531.99 121.735 2522.9 121.735C2515.76 121.735 2510.4 122.978 2506.83 125.463C2503.26 127.87 2501.47 131.015 2501.47 134.898C2501.47 137.927 2502.63 140.606 2504.96 142.936C2507.22 145.265 2511.33 147.556 2517.31 149.808L2527.33 153.653C2543.87 159.943 2554.7 166.039 2559.83 171.941C2564.88 177.921 2567.4 185.065 2567.4 193.375C2567.4 204.169 2562.74 213.643 2553.42 221.798C2544.18 229.874 2530.71 233.912 2513 233.912C2497.94 233.912 2482.56 231.582 2466.87 226.923ZM2608.75 231V124.647H2591.16V103.097H2608.75V93.8946C2608.75 76.0332 2612.83 63.2973 2620.99 55.6868C2629.22 47.9986 2640.87 44.1545 2655.93 44.1545C2666.1 44.1545 2676.59 45.6301 2687.38 48.5811V71.8785C2677.6 67.7626 2668.82 65.7047 2661.06 65.7047C2657.41 65.7047 2654.26 66.4424 2651.62 67.9179C2649.06 69.3158 2647 71.7232 2645.45 75.1401C2643.97 78.4794 2643.23 84.3038 2643.23 92.6132V103.097H2675.62V124.647H2643.23V231H2608.75ZM2783.25 231V206.887C2777.12 216.672 2770.28 223.622 2762.75 227.738C2755.22 231.854 2747.53 233.912 2739.69 233.912C2729.59 233.912 2720.89 230.689 2713.59 224.244C2706.37 217.72 2702.76 207.47 2702.76 193.491V103.097H2737.24V184.988C2737.24 191.977 2737.86 196.714 2739.1 199.199C2740.42 201.684 2742.17 203.587 2744.35 204.907C2746.6 206.149 2749.08 206.771 2751.8 206.771C2756.54 206.771 2761.47 205.218 2766.59 202.111C2771.72 198.927 2777.27 192.753 2783.25 183.59V103.097H2817.73V231H2783.25ZM2860.95 231V47.0667H2895.43V231H2860.95ZM2938.53 231V47.0667H2973.01V231H2938.53ZM3016.58 277.012L3045.58 231L2998.17 103.097H3035.21L3066.9 188.599L3104.52 103.097H3130.73L3051.75 277.012H3016.58Z" fill="#DCA413"/>
<path d="M1638.88 229.486H1633.88V233.537L1637.85 234.377L1638.88 229.486ZM1638.88 199.898L1640.82 195.29L1633.88 192.368V199.898H1638.88ZM1668.59 209.916L1667.76 214.848L1667.77 214.849L1668.59 209.916ZM1712.39 175.552L1716.52 172.741L1716.51 172.721L1716.49 172.702L1712.39 175.552ZM1692.35 160.758L1694.81 156.405L1694.79 156.396L1694.78 156.387L1692.35 160.758ZM1680.82 154.351L1678.37 158.712L1678.38 158.717L1678.39 158.722L1680.82 154.351ZM1647.39 128.724L1651.4 125.743L1651.39 125.731L1651.38 125.718L1647.39 128.724ZM1653.21 68.1509L1649.79 64.5023L1649.78 64.5091L1649.78 64.5158L1653.21 68.1509ZM1742.09 60.2298H1747.09V56.2482L1743.21 55.3567L1742.09 60.2298ZM1742.09 87.8372L1740.33 92.5172L1747.09 95.0597V87.8372H1742.09ZM1680.7 83.6437L1683.92 87.4683L1683.93 87.4631L1680.7 83.6437ZM1678.02 108.455L1682.05 105.499L1682.03 105.47L1682.01 105.441L1678.02 108.455ZM1697.94 122.783L1695.48 127.136L1695.49 127.144L1695.51 127.152L1697.94 122.783ZM1710.29 129.656L1712.74 125.301L1712.73 125.294L1712.72 125.287L1710.29 129.656ZM1746.4 157.38L1750.6 154.664L1750.58 154.64L1750.57 154.616L1746.4 157.38ZM1738.01 220.283L1734.6 216.631L1734.59 216.637L1734.58 216.643L1738.01 220.283ZM1643.88 229.486V199.898H1633.88V229.486H1643.88ZM1636.94 204.506C1650.26 210.115 1660.62 213.658 1667.76 214.848L1669.41 204.984C1663.5 204 1654.06 200.864 1640.82 195.29L1636.94 204.506ZM1667.77 214.849C1674.59 215.972 1680.92 216.547 1686.76 216.547V206.547C1681.57 206.547 1675.79 206.034 1669.4 204.982L1667.77 214.849ZM1686.76 216.547C1697.35 216.547 1706.21 214.16 1712.39 208.469L1705.62 201.112C1702.02 204.429 1696.05 206.547 1686.76 206.547V216.547ZM1712.39 208.469C1718.25 203.079 1721.35 196.374 1721.35 188.599H1711.35C1711.35 193.404 1709.55 197.493 1705.62 201.112L1712.39 208.469ZM1721.35 188.599C1721.35 182.808 1719.74 177.475 1716.52 172.741L1708.25 178.364C1710.31 181.395 1711.35 184.76 1711.35 188.599H1721.35ZM1716.49 172.702C1714.71 170.125 1711.85 167.554 1708.37 164.977C1704.81 162.349 1700.27 159.491 1694.81 156.405L1689.89 165.111C1695.15 168.083 1699.31 170.719 1702.43 173.022C1705.62 175.377 1707.42 177.174 1708.28 178.403L1716.49 172.702ZM1694.78 156.387L1683.25 149.981L1678.39 158.722L1689.92 165.129L1694.78 156.387ZM1683.26 149.991C1666.95 140.833 1656.57 132.71 1651.4 125.743L1643.37 131.705C1649.85 140.425 1661.76 149.388 1678.37 158.712L1683.26 149.991ZM1651.38 125.718C1646.17 118.788 1643.53 110.771 1643.53 101.466H1633.53C1633.53 112.819 1636.8 122.973 1643.39 131.731L1651.38 125.718ZM1643.53 101.466C1643.53 89.9305 1647.82 80.123 1656.64 71.786L1649.78 64.5158C1639.03 74.6615 1633.53 87.0642 1633.53 101.466H1643.53ZM1656.63 71.7995C1665.27 63.7 1678.01 59.2889 1695.61 59.2889V49.2889C1676.4 49.2889 1660.87 54.1192 1649.79 64.5023L1656.63 71.7995ZM1695.61 59.2889C1708.89 59.2889 1724 61.2039 1740.97 65.1028L1743.21 55.3567C1725.7 51.3345 1709.82 49.2889 1695.61 49.2889V59.2889ZM1737.09 60.2298V87.8372H1747.09V60.2298H1737.09ZM1743.85 83.1573C1726.12 76.4883 1711.5 72.9358 1700.27 72.9358V82.9358C1709.69 82.9358 1722.96 85.9843 1740.33 92.5172L1743.85 83.1573ZM1700.27 72.9358C1691.07 72.9358 1683.21 74.9783 1677.47 79.8243L1683.93 87.4631C1687.2 84.6986 1692.39 82.9358 1700.27 82.9358V72.9358ZM1677.48 79.8191C1672.05 84.3937 1669.06 90.2477 1669.06 97.1562H1679.06C1679.06 93.5032 1680.5 90.3489 1683.92 87.4683L1677.48 79.8191ZM1669.06 97.1562C1669.06 102.376 1670.79 107.185 1674.03 111.47L1682.01 105.441C1679.97 102.737 1679.06 100.013 1679.06 97.1562H1669.06ZM1673.99 111.412C1675.75 113.807 1678.56 116.244 1682 118.717C1685.52 121.25 1690.03 124.058 1695.48 127.136L1700.4 118.431C1695.13 115.452 1690.96 112.843 1687.84 110.599C1684.64 108.297 1682.86 106.598 1682.05 105.499L1673.99 111.412ZM1695.51 127.152L1707.86 134.025L1712.72 125.287L1700.37 118.415L1695.51 127.152ZM1707.83 134.012C1726.69 144.643 1737.75 153.392 1742.23 160.144L1750.57 154.616C1744.64 145.682 1731.63 135.948 1712.74 125.301L1707.83 134.012ZM1742.2 160.096C1746.78 167.171 1749.09 175.111 1749.09 184.056H1759.09C1759.09 173.275 1756.27 163.432 1750.6 154.664L1742.2 160.096ZM1749.09 184.056C1749.09 196.747 1744.35 207.518 1734.6 216.631L1741.43 223.936C1753.11 213.013 1759.09 199.632 1759.09 184.056H1749.09ZM1734.58 216.643C1725.29 225.393 1709.85 230.31 1687.11 230.31V240.31C1710.96 240.31 1729.45 235.209 1741.44 223.923L1734.58 216.643ZM1687.11 230.31C1673.73 230.31 1658.02 228.429 1639.92 224.594L1637.85 234.377C1656.4 238.309 1672.84 240.31 1687.11 240.31V230.31ZM1863.93 231H1858.93V236H1863.93V231ZM1863.93 206.887H1868.93V189.5L1859.7 204.231L1863.93 206.887ZM1794.28 224.244L1790.92 227.954L1790.95 227.973L1790.97 227.992L1794.28 224.244ZM1783.44 103.097V98.0971H1778.44V103.097H1783.44ZM1817.92 103.097H1822.92V98.0971H1817.92V103.097ZM1819.79 199.199L1815.31 201.435L1815.34 201.49L1815.37 201.545L1819.79 199.199ZM1825.03 204.907L1822.43 209.181L1822.52 209.235L1822.61 209.285L1825.03 204.907ZM1847.28 202.111L1849.87 206.387L1849.89 206.373L1849.92 206.358L1847.28 202.111ZM1863.93 183.59L1868.12 186.322L1868.93 185.077V183.59H1863.93ZM1863.93 103.097V98.0971H1858.93V103.097H1863.93ZM1898.42 103.097H1903.42V98.0971H1898.42V103.097ZM1898.42 231V236H1903.42V231H1898.42ZM1868.93 231V206.887H1858.93V231H1868.93ZM1859.7 204.231C1853.87 213.532 1847.6 219.763 1841.04 223.351L1845.83 232.126C1854.33 227.482 1861.73 219.812 1868.17 209.543L1859.7 204.231ZM1841.04 223.351C1834.17 227.104 1827.3 228.912 1820.37 228.912V238.912C1829.13 238.912 1837.63 236.605 1845.83 232.126L1841.04 223.351ZM1820.37 228.912C1811.44 228.912 1803.94 226.103 1797.59 220.496L1790.97 227.992C1799.22 235.276 1809.1 238.912 1820.37 238.912V228.912ZM1797.63 220.533C1791.85 215.311 1788.44 206.686 1788.44 193.491H1778.44C1778.44 208.254 1782.26 220.13 1790.92 227.954L1797.63 220.533ZM1788.44 193.491V103.097H1778.44V193.491H1788.44ZM1783.44 108.097H1817.92V98.0971H1783.44V108.097ZM1812.92 103.097V184.988H1822.92V103.097H1812.92ZM1812.92 184.988C1812.92 188.61 1813.08 191.775 1813.43 194.433C1813.77 197.016 1814.33 199.461 1815.31 201.435L1824.26 196.963C1824 196.452 1823.63 195.286 1823.35 193.132C1823.07 191.053 1822.92 188.354 1822.92 184.988H1812.92ZM1815.37 201.545C1817.07 204.738 1819.41 207.345 1822.43 209.181L1827.62 200.633C1826.3 199.828 1825.15 198.63 1824.2 196.853L1815.37 201.545ZM1822.61 209.285C1825.65 210.959 1828.97 211.771 1832.48 211.771V201.771C1830.56 201.771 1828.91 201.34 1827.44 200.529L1822.61 209.285ZM1832.48 211.771C1838.35 211.771 1844.17 209.843 1849.87 206.387L1844.69 197.835C1840.14 200.592 1836.09 201.771 1832.48 201.771V211.771ZM1849.92 206.358C1855.98 202.591 1862.02 195.679 1868.12 186.322L1859.75 180.857C1853.89 189.828 1848.83 195.263 1844.64 197.864L1849.92 206.358ZM1868.93 183.59V103.097H1858.93V183.59H1868.93ZM1863.93 108.097H1898.42V98.0971H1863.93V108.097ZM1893.42 103.097V231H1903.42V103.097H1893.42ZM1898.42 226H1863.93V236H1898.42V226ZM2035.99 228.204L2037.27 233.036L2040.99 232.047V228.204H2035.99ZM1946.64 214.575L1942.83 217.814L1942.84 217.82L1942.84 217.825L1946.64 214.575ZM1947.57 118.823L1951.21 122.254L1951.22 122.248L1951.22 122.243L1947.57 118.823ZM2034.94 105.194H2039.94V101.274L2036.13 100.338L2034.94 105.194ZM2034.94 130.122L2033.4 134.878L2039.94 136.999V130.122H2034.94ZM1974.95 136.878L1979.21 139.489L1979.22 139.48L1979.22 139.472L1974.95 136.878ZM1971.45 190.229L1966.87 192.228L1966.87 192.237L1966.88 192.246L1971.45 190.229ZM1984.73 206.072L1982.19 210.38L1982.21 210.387L1982.22 210.395L1984.73 206.072ZM2035.99 204.324H2040.99V196.861L2034.08 199.7L2035.99 204.324ZM2034.7 223.373C2020.75 227.087 2007.87 228.912 1996.03 228.912V238.912C2008.89 238.912 2022.64 236.932 2037.27 233.036L2034.7 223.373ZM1996.03 228.912C1975.14 228.912 1960.26 222.801 1950.44 211.325L1942.84 217.825C1955.08 232.132 1973.13 238.912 1996.03 238.912V228.912ZM1950.45 211.336C1940.27 199.367 1935.1 184.671 1935.1 166.932H1925.1C1925.1 186.78 1930.95 203.845 1942.83 217.814L1950.45 211.336ZM1935.1 166.932C1935.1 148.261 1940.58 133.524 1951.21 122.254L1943.94 115.392C1931.27 128.817 1925.1 146.153 1925.1 166.932H1935.1ZM1951.22 122.243C1961.64 111.125 1977.25 105.185 1998.94 105.185V95.1849C1975.44 95.1849 1956.8 101.67 1943.93 115.403L1951.22 122.243ZM1998.94 105.185C2008.84 105.185 2020.42 106.775 2033.75 110.049L2036.13 100.338C2022.28 96.9336 2009.86 95.1849 1998.94 95.1849V105.185ZM2029.94 105.194V130.122H2039.94V105.194H2029.94ZM2036.48 125.366C2022.17 120.727 2010.32 118.249 2001.16 118.249V128.249C2008.77 128.249 2019.44 130.354 2033.4 134.878L2036.48 125.366ZM2001.16 118.249C1987.71 118.249 1977.22 123.494 1970.67 134.284L1979.22 139.472C1983.7 132.091 1990.68 128.249 2001.16 128.249V118.249ZM1970.68 134.268C1964.67 144.086 1961.68 154.934 1961.68 166.699H1971.68C1971.68 156.72 1974.19 147.687 1979.21 139.489L1970.68 134.268ZM1961.68 166.699C1961.68 175.737 1963.4 184.265 1966.87 192.228L1976.04 188.231C1973.14 181.594 1971.68 174.435 1971.68 166.699H1961.68ZM1966.88 192.246C1970.4 200.231 1975.45 206.41 1982.19 210.38L1987.27 201.764C1982.67 199.055 1978.88 194.672 1976.03 188.212L1966.88 192.246ZM1982.22 210.395C1988.79 214.211 1996.11 216.081 2004.07 216.081V206.081C1997.74 206.081 1992.17 204.611 1987.24 201.749L1982.22 210.395ZM2004.07 216.081C2015.14 216.081 2026.42 213.665 2037.89 208.949L2034.08 199.7C2023.65 203.992 2013.66 206.081 2004.07 206.081V216.081ZM2030.99 204.324V228.204H2040.99V204.324H2030.99ZM2162.96 228.204L2164.24 233.036L2167.96 232.047V228.204H2162.96ZM2073.61 214.575L2069.8 217.814L2069.81 217.82L2069.81 217.825L2073.61 214.575ZM2074.54 118.823L2078.18 122.254L2078.19 122.248L2078.19 122.243L2074.54 118.823ZM2161.91 105.194H2166.91V101.274L2163.1 100.338L2161.91 105.194ZM2161.91 130.122L2160.37 134.878L2166.91 136.999V130.122H2161.91ZM2101.92 136.878L2106.18 139.489L2106.19 139.48L2106.19 139.472L2101.92 136.878ZM2098.42 190.229L2093.84 192.228L2093.84 192.237L2093.85 192.246L2098.42 190.229ZM2111.7 206.072L2109.17 210.38L2109.18 210.387L2109.19 210.395L2111.7 206.072ZM2162.96 204.324H2167.96V196.861L2161.06 199.7L2162.96 204.324ZM2161.67 223.373C2147.72 227.087 2134.84 228.912 2123 228.912V238.912C2135.86 238.912 2149.62 236.932 2164.24 233.036L2161.67 223.373ZM2123 228.912C2102.11 228.912 2087.23 222.801 2077.41 211.325L2069.81 217.825C2082.05 232.132 2100.1 238.912 2123 238.912V228.912ZM2077.42 211.336C2067.24 199.367 2062.07 184.671 2062.07 166.932H2052.07C2052.07 186.78 2057.93 203.845 2069.8 217.814L2077.42 211.336ZM2062.07 166.932C2062.07 148.261 2067.55 133.524 2078.18 122.254L2070.91 115.392C2058.24 128.817 2052.07 146.153 2052.07 166.932H2062.07ZM2078.19 122.243C2088.61 111.125 2104.23 105.185 2125.91 105.185V95.1849C2102.41 95.1849 2083.77 101.67 2070.9 115.403L2078.19 122.243ZM2125.91 105.185C2135.81 105.185 2147.39 106.775 2160.72 110.049L2163.1 100.338C2149.25 96.9336 2136.83 95.1849 2125.91 95.1849V105.185ZM2156.91 105.194V130.122H2166.91V105.194H2156.91ZM2163.45 125.366C2149.14 120.727 2137.29 118.249 2128.13 118.249V128.249C2135.74 128.249 2146.41 130.354 2160.37 134.878L2163.45 125.366ZM2128.13 118.249C2114.68 118.249 2104.19 123.494 2097.64 134.284L2106.19 139.472C2110.67 132.091 2117.65 128.249 2128.13 128.249V118.249ZM2097.65 134.268C2091.64 144.086 2088.65 154.934 2088.65 166.699H2098.65C2098.65 156.72 2101.16 147.687 2106.18 139.489L2097.65 134.268ZM2088.65 166.699C2088.65 175.737 2090.37 184.265 2093.84 192.228L2103.01 188.231C2100.11 181.594 2098.65 174.435 2098.65 166.699H2088.65ZM2093.85 192.246C2097.37 200.231 2102.43 206.41 2109.17 210.38L2114.24 201.764C2109.64 199.055 2105.85 194.672 2103 188.212L2093.85 192.246ZM2109.19 210.395C2115.76 214.211 2123.08 216.081 2131.04 216.081V206.081C2124.71 206.081 2119.14 204.611 2114.22 201.749L2109.19 210.395ZM2131.04 216.081C2142.11 216.081 2153.39 213.665 2164.86 208.949L2161.06 199.7C2150.62 203.992 2140.63 206.081 2131.04 206.081V216.081ZM2157.96 204.324V228.204H2167.96V204.324H2157.96ZM2299.71 226.69L2301.12 231.487L2304.71 230.432V226.69H2299.71ZM2216.54 226.224L2214.31 230.696L2214.33 230.706L2214.35 230.716L2216.54 226.224ZM2192.43 201.995L2187.97 204.256L2187.98 204.275L2187.99 204.294L2192.43 201.995ZM2191.15 133.034L2186.63 130.895L2186.62 130.903L2186.62 130.91L2191.15 133.034ZM2212 109.038L2214.7 113.247L2214.71 113.241L2212 109.038ZM2299.71 173.921V178.921H2304.71V173.921H2299.71ZM2220.39 173.921V168.921H2214.92L2215.41 174.37L2220.39 173.921ZM2226.21 194.307L2221.97 196.957L2221.98 196.98L2222 197.004L2226.21 194.307ZM2239.02 206.188L2236.61 210.568L2236.64 210.581L2236.66 210.595L2239.02 206.188ZM2299.71 202.461H2304.71V195.286L2297.98 197.77L2299.71 202.461ZM2219.92 154.468L2214.95 153.963L2214.39 159.468H2219.92V154.468ZM2265.82 154.468V159.468H2270.82V154.468H2265.82ZM2259.87 129.307L2255.91 132.355L2255.93 132.374L2255.94 132.393L2259.87 129.307ZM2228.07 130.122L2232 133.219L2232.01 133.205L2232.02 133.192L2228.07 130.122ZM2298.3 221.893C2282.3 226.595 2267.25 228.912 2253.12 228.912V238.912C2268.34 238.912 2284.35 236.415 2301.12 231.487L2298.3 221.893ZM2253.12 228.912C2239.83 228.912 2228.42 226.465 2218.74 221.732L2214.35 230.716C2225.63 236.234 2238.6 238.912 2253.12 238.912V228.912ZM2218.78 221.752C2209.38 217.051 2202.08 209.766 2196.87 199.696L2187.99 204.294C2194.11 216.123 2202.89 224.991 2214.31 230.696L2218.78 221.752ZM2196.89 199.734C2191.67 189.437 2189.04 178.257 2189.04 166.117H2179.04C2179.04 179.759 2182.01 192.497 2187.97 204.256L2196.89 199.734ZM2189.04 166.117C2189.04 154.837 2191.27 144.542 2195.67 135.158L2186.62 130.91C2181.55 141.718 2179.04 153.477 2179.04 166.117H2189.04ZM2195.67 135.173C2200.1 125.809 2206.43 118.544 2214.7 113.247L2209.3 104.829C2199.39 111.181 2191.83 119.913 2186.63 130.895L2195.67 135.173ZM2214.71 113.241C2222.9 107.966 2233.17 105.185 2245.78 105.185V95.1849C2231.68 95.1849 2219.43 98.306 2209.29 104.834L2214.71 113.241ZM2245.78 105.185C2261.01 105.185 2272.7 109.969 2281.39 119.219L2288.68 112.369C2277.81 100.807 2263.32 95.1849 2245.78 95.1849V105.185ZM2281.39 119.219C2289.77 128.132 2294.71 145.767 2294.71 173.921H2304.71C2304.71 145.385 2299.87 124.268 2288.68 112.369L2281.39 119.219ZM2299.71 168.921H2220.39V178.921H2299.71V168.921ZM2215.41 174.37C2216.22 183.428 2218.3 191.08 2221.97 196.957L2230.45 191.657C2227.91 187.593 2226.1 181.655 2225.37 173.473L2215.41 174.37ZM2222 197.004C2225.65 202.702 2230.55 207.23 2236.61 210.568L2241.44 201.808C2236.78 199.244 2233.14 195.851 2230.42 191.609L2222 197.004ZM2236.66 210.595C2243.01 214.001 2251.11 215.498 2260.57 215.498V205.498C2252.02 205.498 2245.75 204.123 2241.39 201.782L2236.66 210.595ZM2260.57 215.498C2272.9 215.498 2286.54 212.65 2301.44 207.151L2297.98 197.77C2283.84 202.989 2271.39 205.498 2260.57 205.498V215.498ZM2294.71 202.461V226.69H2304.71V202.461H2294.71ZM2219.92 159.468H2265.82V149.468H2219.92V159.468ZM2270.82 154.468C2270.82 142.436 2268.83 132.625 2263.81 126.22L2255.94 132.393C2258.84 136.084 2260.82 143.047 2260.82 154.468H2270.82ZM2263.84 126.258C2259.04 120.016 2252.54 116.735 2244.73 116.735V126.735C2249.35 126.735 2252.95 128.502 2255.91 132.355L2263.84 126.258ZM2244.73 116.735C2236.35 116.735 2229.37 120.312 2224.13 127.052L2232.02 133.192C2235.48 128.75 2239.6 126.735 2244.73 126.735V116.735ZM2224.15 127.026C2218.97 133.585 2216.08 142.768 2214.95 153.963L2224.89 154.973C2225.93 144.734 2228.48 137.687 2232 133.219L2224.15 127.026ZM2331.98 226.923H2326.98V230.654L2330.56 231.716L2331.98 226.923ZM2331.98 201.645L2333.91 197.032L2326.98 194.135V201.645H2331.98ZM2391.16 208.285L2388.29 204.189L2388.27 204.202L2388.25 204.216L2391.16 208.285ZM2392.67 188.715L2395.94 184.933L2395.91 184.908L2395.88 184.883L2392.67 188.715ZM2379.51 181.609L2377.65 186.252L2377.66 186.256L2377.67 186.26L2379.51 181.609ZM2341.18 160.991L2344.74 157.479L2344.73 157.468L2344.72 157.456L2341.18 160.991ZM2345.49 111.018L2342.3 107.171L2342.29 107.179L2342.28 107.186L2345.49 111.018ZM2422.37 104.728H2427.37V100.672L2423.41 99.8354L2422.37 104.728ZM2422.37 128.957L2420.73 133.679L2427.37 135.993V128.957H2422.37ZM2371.94 125.463L2374.73 129.609L2374.76 129.588L2374.79 129.567L2371.94 125.463ZM2370.07 142.936L2373.67 139.461L2373.64 139.43L2373.61 139.4L2370.07 142.936ZM2382.42 149.808L2384.21 145.14L2384.2 145.135L2384.18 145.129L2382.42 149.808ZM2392.44 153.653L2390.65 158.321L2390.65 158.323L2390.66 158.326L2392.44 153.653ZM2424.94 171.941L2428.76 168.716L2428.74 168.689L2428.71 168.663L2424.94 171.941ZM2418.53 221.798L2421.82 225.562L2421.82 225.56L2418.53 221.798ZM2336.98 226.923V201.645H2326.98V226.923H2336.98ZM2330.05 206.258C2347.46 213.537 2362.75 217.362 2375.78 217.362V207.362C2364.58 207.362 2350.67 204.043 2333.91 197.032L2330.05 206.258ZM2375.78 217.362C2382.88 217.362 2389.14 215.868 2394.06 212.354L2388.25 204.216C2385.56 206.138 2381.57 207.362 2375.78 207.362V217.362ZM2394.02 212.381C2399.04 208.869 2401.98 203.975 2401.98 197.918H2391.98C2391.98 200.248 2391.04 202.265 2388.29 204.189L2394.02 212.381ZM2401.98 197.918C2401.98 192.749 2399.86 188.324 2395.94 184.933L2389.4 192.497C2391.23 194.077 2391.98 195.786 2391.98 197.918H2401.98ZM2395.88 184.883C2392.41 181.973 2387.45 179.369 2381.34 176.959L2377.67 186.26C2383.37 188.509 2387.19 190.643 2389.46 192.548L2395.88 184.883ZM2381.36 176.967L2369.72 172.308L2366 181.592L2377.65 186.252L2381.36 176.967ZM2369.72 172.308C2357.99 167.616 2349.81 162.611 2344.74 157.479L2337.62 164.503C2344.05 171.02 2353.66 176.655 2366 181.592L2369.72 172.308ZM2344.72 157.456C2340.04 152.778 2337.56 146.622 2337.56 138.509H2327.56C2327.56 148.879 2330.83 157.711 2337.65 164.527L2344.72 157.456ZM2337.56 138.509C2337.56 128.905 2341.2 121.137 2348.7 114.851L2342.28 107.186C2332.54 115.344 2327.56 125.903 2327.56 138.509H2337.56ZM2348.69 114.865C2356.1 108.711 2367.97 105.185 2385.22 105.185V95.1849C2366.9 95.1849 2352.28 98.8814 2342.3 107.171L2348.69 114.865ZM2385.22 105.185C2395.17 105.185 2407.19 106.637 2421.34 109.62L2423.41 99.8354C2408.83 96.7619 2396.08 95.1849 2385.22 95.1849V105.185ZM2417.37 104.728V128.957H2427.37V104.728H2417.37ZM2424.02 124.235C2409.95 119.335 2397.89 116.735 2388.01 116.735V126.735C2396.3 126.735 2407.15 128.95 2420.73 133.679L2424.02 124.235ZM2388.01 116.735C2380.44 116.735 2373.87 118.024 2369.08 121.358L2374.79 129.567C2377.14 127.931 2381.29 126.735 2388.01 126.735V116.735ZM2369.14 121.316C2364.37 124.534 2361.58 129.149 2361.58 134.898H2371.58C2371.58 132.881 2372.36 131.206 2374.73 129.609L2369.14 121.316ZM2361.58 134.898C2361.58 139.376 2363.36 143.295 2366.54 146.471L2373.61 139.4C2372.12 137.917 2371.58 136.478 2371.58 134.898H2361.58ZM2366.48 146.411C2369.53 149.574 2374.53 152.18 2380.66 154.488L2384.18 145.129C2378.35 142.933 2375.11 140.957 2373.67 139.461L2366.48 146.411ZM2380.63 154.477L2390.65 158.321L2394.23 148.984L2384.21 145.14L2380.63 154.477ZM2390.66 158.326C2407.17 164.605 2416.93 170.346 2421.16 175.219L2428.71 168.663C2422.69 161.732 2410.78 155.28 2394.21 148.979L2390.66 158.326ZM2421.12 175.166C2425.35 180.185 2427.51 186.167 2427.51 193.375H2437.51C2437.51 183.964 2434.62 175.656 2428.76 168.716L2421.12 175.166ZM2427.51 193.375C2427.51 202.508 2423.65 210.675 2415.24 218.035L2421.82 225.56C2432.05 216.612 2437.51 205.831 2437.51 193.375H2427.51ZM2415.24 218.033C2407.24 225.024 2395.13 228.912 2378.11 228.912V238.912C2396.5 238.912 2411.34 234.724 2421.82 225.562L2415.24 218.033ZM2378.11 228.912C2363.57 228.912 2348.67 226.664 2333.4 222.13L2330.56 231.716C2346.67 236.501 2362.52 238.912 2378.11 238.912V228.912ZM2466.87 226.923H2461.87V230.654L2465.45 231.716L2466.87 226.923ZM2466.87 201.645L2468.8 197.032L2461.87 194.135V201.645H2466.87ZM2526.05 208.285L2523.18 204.189L2523.16 204.202L2523.14 204.216L2526.05 208.285ZM2527.56 188.715L2530.83 184.933L2530.8 184.908L2530.77 184.883L2527.56 188.715ZM2514.4 181.609L2512.54 186.252L2512.55 186.256L2512.56 186.26L2514.4 181.609ZM2476.08 160.991L2479.63 157.479L2479.62 157.468L2479.61 157.456L2476.08 160.991ZM2480.39 111.018L2477.19 107.171L2477.18 107.179L2477.17 107.186L2480.39 111.018ZM2557.27 104.728H2562.27V100.672L2558.3 99.8354L2557.27 104.728ZM2557.27 128.957L2555.62 133.679L2562.27 135.993V128.957H2557.27ZM2506.83 125.463L2509.62 129.609L2509.65 129.588L2509.68 129.567L2506.83 125.463ZM2504.96 142.936L2508.56 139.461L2508.53 139.43L2508.5 139.4L2504.96 142.936ZM2517.31 149.808L2519.1 145.14L2519.09 145.135L2519.07 145.129L2517.31 149.808ZM2527.33 153.653L2525.54 158.321L2525.55 158.323L2525.55 158.326L2527.33 153.653ZM2559.83 171.941L2563.65 168.716L2563.63 168.689L2563.6 168.663L2559.83 171.941ZM2553.42 221.798L2556.71 225.562L2556.72 225.56L2553.42 221.798ZM2471.87 226.923V201.645H2461.87V226.923H2471.87ZM2464.94 206.258C2482.35 213.537 2497.64 217.362 2510.67 217.362V207.362C2499.47 207.362 2485.57 204.043 2468.8 197.032L2464.94 206.258ZM2510.67 217.362C2517.77 217.362 2524.03 215.868 2528.95 212.354L2523.14 204.216C2520.45 206.138 2516.46 207.362 2510.67 207.362V217.362ZM2528.92 212.381C2533.93 208.869 2536.87 203.975 2536.87 197.918H2526.87C2526.87 200.248 2525.93 202.265 2523.18 204.189L2528.92 212.381ZM2536.87 197.918C2536.87 192.749 2534.75 188.324 2530.83 184.933L2524.29 192.497C2526.12 194.077 2526.87 195.786 2526.87 197.918H2536.87ZM2530.77 184.883C2527.3 181.973 2522.34 179.369 2516.24 176.959L2512.56 186.26C2518.26 188.509 2522.08 190.643 2524.35 192.548L2530.77 184.883ZM2516.26 176.967L2504.61 172.308L2500.89 181.592L2512.54 186.252L2516.26 176.967ZM2504.61 172.308C2492.88 167.616 2484.7 162.611 2479.63 157.479L2472.52 164.503C2478.95 171.02 2488.55 176.655 2500.89 181.592L2504.61 172.308ZM2479.61 157.456C2474.93 152.778 2472.46 146.622 2472.46 138.509H2462.46C2462.46 148.879 2465.72 157.711 2472.54 164.527L2479.61 157.456ZM2472.46 138.509C2472.46 128.905 2476.09 121.137 2483.6 114.851L2477.17 107.186C2467.44 115.344 2462.46 125.903 2462.46 138.509H2472.46ZM2483.58 114.865C2490.99 108.711 2502.86 105.185 2520.11 105.185V95.1849C2501.79 95.1849 2487.17 98.8814 2477.19 107.171L2483.58 114.865ZM2520.11 105.185C2530.06 105.185 2542.08 106.637 2556.24 109.62L2558.3 99.8354C2543.72 96.7619 2530.97 95.1849 2520.11 95.1849V105.185ZM2552.27 104.728V128.957H2562.27V104.728H2552.27ZM2558.91 124.235C2544.84 119.335 2532.79 116.735 2522.9 116.735V126.735C2531.19 126.735 2542.05 128.95 2555.62 133.679L2558.91 124.235ZM2522.9 116.735C2515.33 116.735 2508.77 118.024 2503.97 121.358L2509.68 129.567C2512.03 127.931 2516.18 126.735 2522.9 126.735V116.735ZM2504.03 121.316C2499.26 124.534 2496.47 129.149 2496.47 134.898H2506.47C2506.47 132.881 2507.25 131.206 2509.62 129.609L2504.03 121.316ZM2496.47 134.898C2496.47 139.376 2498.25 143.295 2501.43 146.471L2508.5 139.4C2507.02 137.917 2506.47 136.478 2506.47 134.898H2496.47ZM2501.37 146.411C2504.43 149.574 2509.42 152.18 2515.55 154.488L2519.07 145.129C2513.24 142.933 2510.01 140.957 2508.56 139.461L2501.37 146.411ZM2515.52 154.477L2525.54 158.321L2529.12 148.984L2519.1 145.14L2515.52 154.477ZM2525.55 158.326C2542.06 164.605 2551.82 170.346 2556.05 175.219L2563.6 168.663C2557.59 161.732 2545.68 155.28 2529.11 148.979L2525.55 158.326ZM2556.01 175.166C2560.25 180.185 2562.4 186.167 2562.4 193.375H2572.4C2572.4 183.964 2569.51 175.656 2563.65 168.716L2556.01 175.166ZM2562.4 193.375C2562.4 202.508 2558.54 210.675 2550.13 218.035L2556.72 225.56C2566.94 216.612 2572.4 205.831 2572.4 193.375H2562.4ZM2550.13 218.033C2542.13 225.024 2530.02 228.912 2513 228.912V238.912C2531.39 238.912 2546.23 234.724 2556.71 225.562L2550.13 218.033ZM2513 228.912C2498.46 228.912 2483.56 226.664 2468.3 222.13L2465.45 231.716C2481.56 236.501 2497.41 238.912 2513 238.912V228.912ZM2608.75 231H2603.75V236H2608.75V231ZM2608.75 124.647H2613.75V119.647H2608.75V124.647ZM2591.16 124.647H2586.16V129.647H2591.16V124.647ZM2591.16 103.097V98.0971H2586.16V103.097H2591.16ZM2608.75 103.097V108.097H2613.75V103.097H2608.75ZM2620.99 55.6868L2624.4 59.3421L2624.4 59.3409L2620.99 55.6868ZM2687.38 48.5811H2692.38V44.7645L2688.7 43.758L2687.38 48.5811ZM2687.38 71.8785L2685.44 76.4874L2692.38 79.406V71.8785H2687.38ZM2651.62 67.9179L2654.02 72.3074L2654.04 72.2951L2654.06 72.2827L2651.62 67.9179ZM2645.45 75.1401L2640.9 73.0711L2640.88 73.0952L2640.87 73.1193L2645.45 75.1401ZM2643.23 103.097H2638.23V108.097H2643.23V103.097ZM2675.62 103.097H2680.62V98.0971H2675.62V103.097ZM2675.62 124.647V129.647H2680.62V124.647H2675.62ZM2643.23 124.647V119.647H2638.23V124.647H2643.23ZM2643.23 231V236H2648.23V231H2643.23ZM2613.75 231V124.647H2603.75V231H2613.75ZM2608.75 119.647H2591.16V129.647H2608.75V119.647ZM2596.16 124.647V103.097H2586.16V124.647H2596.16ZM2591.16 108.097H2608.75V98.0971H2591.16V108.097ZM2613.75 103.097V93.8946H2603.75V103.097H2613.75ZM2613.75 93.8946C2613.75 76.6088 2617.73 65.5683 2624.4 59.3421L2617.57 52.0315C2607.94 61.0262 2603.75 75.4576 2603.75 93.8946H2613.75ZM2624.4 59.3409C2631.43 52.7756 2641.7 49.1545 2655.93 49.1545V39.1545C2640.04 39.1545 2627.01 43.2216 2617.57 52.0326L2624.4 59.3409ZM2655.93 49.1545C2665.62 49.1545 2675.66 50.5589 2686.06 53.4041L2688.7 43.758C2677.52 40.7012 2666.59 39.1545 2655.93 39.1545V49.1545ZM2682.38 48.5811V71.8785H2692.38V48.5811H2682.38ZM2689.32 67.2696C2679.13 62.9844 2669.68 60.7047 2661.06 60.7047V70.7047C2667.96 70.7047 2676.06 72.5408 2685.44 76.4874L2689.32 67.2696ZM2661.06 60.7047C2656.73 60.7047 2652.71 61.583 2649.18 63.5532L2654.06 72.2827C2655.82 71.3019 2658.08 70.7047 2661.06 70.7047V60.7047ZM2649.23 63.5285C2645.47 65.5771 2642.77 68.9509 2640.9 73.0711L2650 77.2092C2651.23 74.4954 2652.65 73.0545 2654.02 72.3074L2649.23 63.5285ZM2640.87 73.1193C2638.94 77.5066 2638.23 84.2747 2638.23 92.6132H2648.23C2648.23 84.3329 2649.01 79.4523 2650.02 77.161L2640.87 73.1193ZM2638.23 92.6132V103.097H2648.23V92.6132H2638.23ZM2643.23 108.097H2675.62V98.0971H2643.23V108.097ZM2670.62 103.097V124.647H2680.62V103.097H2670.62ZM2675.62 119.647H2643.23V129.647H2675.62V119.647ZM2638.23 124.647V231H2648.23V124.647H2638.23ZM2643.23 226H2608.75V236H2643.23V226ZM2783.25 231H2778.25V236H2783.25V231ZM2783.25 206.887H2788.25V189.5L2779.02 204.231L2783.25 206.887ZM2713.59 224.244L2710.24 227.954L2710.26 227.973L2710.28 227.992L2713.59 224.244ZM2702.76 103.097V98.0971H2697.76V103.097H2702.76ZM2737.24 103.097H2742.24V98.0971H2737.24V103.097ZM2739.1 199.199L2734.63 201.435L2734.66 201.49L2734.69 201.545L2739.1 199.199ZM2744.35 204.907L2741.75 209.181L2741.84 209.235L2741.93 209.285L2744.35 204.907ZM2766.59 202.111L2769.19 206.387L2769.21 206.373L2769.23 206.358L2766.59 202.111ZM2783.25 183.59L2787.44 186.322L2788.25 185.077V183.59H2783.25ZM2783.25 103.097V98.0971H2778.25V103.097H2783.25ZM2817.73 103.097H2822.73V98.0971H2817.73V103.097ZM2817.73 231V236H2822.73V231H2817.73ZM2788.25 231V206.887H2778.25V231H2788.25ZM2779.02 204.231C2773.18 213.532 2766.92 219.763 2760.35 223.351L2765.15 232.126C2773.65 227.482 2781.05 219.812 2787.49 209.543L2779.02 204.231ZM2760.35 223.351C2753.48 227.104 2746.61 228.912 2739.69 228.912V238.912C2748.44 238.912 2756.95 236.605 2765.15 232.126L2760.35 223.351ZM2739.69 228.912C2730.76 228.912 2723.25 226.103 2716.9 220.496L2710.28 227.992C2718.53 235.276 2728.42 238.912 2739.69 238.912V228.912ZM2716.94 220.533C2711.16 215.311 2707.76 206.686 2707.76 193.491H2697.76C2697.76 208.254 2701.58 220.13 2710.24 227.954L2716.94 220.533ZM2707.76 193.491V103.097H2697.76V193.491H2707.76ZM2702.76 108.097H2737.24V98.0971H2702.76V108.097ZM2732.24 103.097V184.988H2742.24V103.097H2732.24ZM2732.24 184.988C2732.24 188.61 2732.4 191.775 2732.75 194.433C2733.09 197.016 2733.64 199.461 2734.63 201.435L2743.58 196.963C2743.32 196.452 2742.95 195.286 2742.66 193.132C2742.39 191.053 2742.24 188.354 2742.24 184.988H2732.24ZM2734.69 201.545C2736.38 204.738 2738.73 207.345 2741.75 209.181L2746.94 200.633C2745.61 199.828 2744.46 198.63 2743.52 196.853L2734.69 201.545ZM2741.93 209.285C2744.96 210.959 2748.29 211.771 2751.8 211.771V201.771C2749.88 201.771 2748.23 201.34 2746.76 200.529L2741.93 209.285ZM2751.8 211.771C2757.66 211.771 2763.48 209.843 2769.19 206.387L2764 197.835C2759.45 200.592 2755.41 201.771 2751.8 201.771V211.771ZM2769.23 206.358C2775.3 202.591 2781.33 195.679 2787.44 186.322L2779.06 180.857C2773.21 189.828 2768.14 195.263 2763.96 197.864L2769.23 206.358ZM2788.25 183.59V103.097H2778.25V183.59H2788.25ZM2783.25 108.097H2817.73V98.0971H2783.25V108.097ZM2812.73 103.097V231H2822.73V103.097H2812.73ZM2817.73 226H2783.25V236H2817.73V226ZM2860.95 231H2855.95V236H2860.95V231ZM2860.95 47.0667V42.0667H2855.95V47.0667H2860.95ZM2895.43 47.0667H2900.43V42.0667H2895.43V47.0667ZM2895.43 231V236H2900.43V231H2895.43ZM2865.95 231V47.0667H2855.95V231H2865.95ZM2860.95 52.0667H2895.43V42.0667H2860.95V52.0667ZM2890.43 47.0667V231H2900.43V47.0667H2890.43ZM2895.43 226H2860.95V236H2895.43V226ZM2938.53 231H2933.53V236H2938.53V231ZM2938.53 47.0667V42.0667H2933.53V47.0667H2938.53ZM2973.01 47.0667H2978.01V42.0667H2973.01V47.0667ZM2973.01 231V236H2978.01V231H2973.01ZM2943.53 231V47.0667H2933.53V231H2943.53ZM2938.53 52.0667H2973.01V42.0667H2938.53V52.0667ZM2968.01 47.0667V231H2978.01V47.0667H2968.01ZM2973.01 226H2938.53V236H2973.01V226ZM3016.58 277.012L3012.35 274.346L3007.51 282.012H3016.58V277.012ZM3045.58 231L3049.81 233.666L3051.13 231.577L3050.27 229.262L3045.58 231ZM2998.17 103.097V98.0971H2990.98L2993.48 104.835L2998.17 103.097ZM3035.21 103.097L3039.9 101.36L3038.69 98.0971H3035.21V103.097ZM3066.9 188.599L3062.21 190.336L3066.5 201.915L3071.47 190.613L3066.9 188.599ZM3104.52 103.097V98.0971H3101.26L3099.95 101.083L3104.52 103.097ZM3130.73 103.097L3135.29 105.164L3138.5 98.0971H3130.73V103.097ZM3051.75 277.012V282.012H3054.98L3056.31 279.08L3051.75 277.012ZM3020.81 279.679L3049.81 233.666L3041.35 228.334L3012.35 274.346L3020.81 279.679ZM3050.27 229.262L3002.86 101.359L2993.48 104.835L3040.89 232.738L3050.27 229.262ZM2998.17 108.097H3035.21V98.0971H2998.17V108.097ZM3030.53 104.834L3062.21 190.336L3071.59 186.861L3039.9 101.36L3030.53 104.834ZM3071.47 190.613L3109.1 105.111L3099.95 101.083L3062.32 186.585L3071.47 190.613ZM3104.52 108.097H3130.73V98.0971H3104.52V108.097ZM3126.18 101.03L3047.2 274.945L3056.31 279.08L3135.29 105.164L3126.18 101.03ZM3051.75 272.012H3016.58V282.012H3051.75V272.012Z" fill="#1B1B1B" mask="url(#path-3-outside-2_8001_2)"/>
<mask id="path-5-outside-3_8001_2" maskUnits="userSpaceOnUse" x="633" y="42" width="909" height="197" fill="black">
<rect fill="white" x="633" y="42" width="909" height="197"/>
<path d="M638.55 231V58.599H712.752C732.633 58.599 748.087 61.7829 759.114 68.1509C770.219 74.5189 779.034 83.9155 785.557 96.3408C792.158 108.688 795.458 123.638 795.458 141.188C795.458 158.351 792.313 173.688 786.023 187.201C779.81 200.713 770.724 211.391 758.765 219.235C746.806 227.078 730.42 231 709.607 231H638.55ZM674.428 206.538H701.22C715.199 206.538 725.877 204.363 733.254 200.014C740.709 195.666 746.573 188.327 750.844 177.998C755.193 167.592 757.367 156.021 757.367 143.285C757.367 131.093 755.27 120.298 751.077 110.902C746.883 101.505 741.059 94.3994 733.604 89.5846C726.226 84.6921 713.723 82.2459 696.095 82.2459H674.428V206.538ZM931.865 226.69C915.479 231.505 899.947 233.912 885.27 233.912C871.369 233.912 859.177 231.349 848.693 226.224C838.287 221.021 830.249 212.944 824.58 201.995C818.989 190.967 816.193 179.008 816.193 166.117C816.193 154.157 818.562 143.13 823.299 133.034C828.114 122.861 835.064 114.862 844.15 109.038C853.314 103.136 864.574 100.185 877.931 100.185C894.317 100.185 907.403 105.388 917.187 115.794C926.972 126.2 931.865 145.576 931.865 173.921H852.537C853.314 182.541 855.255 189.336 858.361 194.307C861.545 199.277 865.817 203.237 871.175 206.188C876.533 209.062 883.717 210.498 892.725 210.498C904.296 210.498 917.343 207.819 931.865 202.461V226.69ZM852.071 154.468H897.967C897.967 142.742 895.987 134.354 892.026 129.307C888.143 124.259 883.096 121.735 876.883 121.735C870.127 121.735 864.574 124.531 860.225 130.122C855.876 135.636 853.158 143.751 852.071 154.468ZM967.51 231V47.0667H1001.99V231H967.51ZM1149.23 226.69C1132.84 231.505 1117.31 233.912 1102.64 233.912C1088.73 233.912 1076.54 231.349 1066.06 226.224C1055.65 221.021 1047.61 212.944 1041.95 201.995C1036.35 190.967 1033.56 179.008 1033.56 166.117C1033.56 154.157 1035.93 143.13 1040.66 133.034C1045.48 122.861 1052.43 114.862 1061.52 109.038C1070.68 103.136 1081.94 100.185 1095.3 100.185C1111.68 100.185 1124.77 105.388 1134.55 115.794C1144.34 126.2 1149.23 145.576 1149.23 173.921H1069.9C1070.68 182.541 1072.62 189.336 1075.73 194.307C1078.91 199.277 1083.18 203.237 1088.54 206.188C1093.9 209.062 1101.08 210.498 1110.09 210.498C1121.66 210.498 1134.71 207.819 1149.23 202.461V226.69ZM1069.44 154.468H1115.33C1115.33 142.742 1113.35 134.354 1109.39 129.307C1105.51 124.259 1100.46 121.735 1094.25 121.735C1087.49 121.735 1081.94 124.531 1077.59 130.122C1073.24 135.636 1070.52 143.751 1069.44 154.468ZM1250.81 230.301C1242.58 232.708 1236.09 233.912 1231.35 233.912C1220.09 233.912 1211.36 232.32 1205.14 229.136C1198.93 225.952 1194.27 221.642 1191.17 216.206C1188.06 210.692 1186.51 202.616 1186.51 191.977V124.647H1172.18V103.097H1186.51V81.5469L1220.99 77.5864V103.097H1248.36V124.647H1220.99V187.434C1220.99 196.675 1222.62 202.927 1225.88 206.188C1229.14 209.372 1233.92 210.964 1240.21 210.964C1243.16 210.964 1246.69 210.421 1250.81 209.333V230.301ZM1385.7 226.69C1369.31 231.505 1353.78 233.912 1339.1 233.912C1325.2 233.912 1313.01 231.349 1302.53 226.224C1292.12 221.021 1284.08 212.944 1278.41 201.995C1272.82 190.967 1270.03 179.008 1270.03 166.117C1270.03 154.157 1272.4 143.13 1277.13 133.034C1281.95 122.861 1288.9 114.862 1297.98 109.038C1307.15 103.136 1318.41 100.185 1331.77 100.185C1348.15 100.185 1361.24 105.388 1371.02 115.794C1380.81 126.2 1385.7 145.576 1385.7 173.921H1306.37C1307.15 182.541 1309.09 189.336 1312.2 194.307C1315.38 199.277 1319.65 203.237 1325.01 206.188C1330.37 209.062 1337.55 210.498 1346.56 210.498C1358.13 210.498 1371.18 207.819 1385.7 202.461V226.69ZM1305.91 154.468H1351.8C1351.8 142.742 1349.82 134.354 1345.86 129.307C1341.98 124.259 1336.93 121.735 1330.72 121.735C1323.96 121.735 1318.41 124.531 1314.06 130.122C1309.71 135.636 1306.99 143.751 1305.91 154.468ZM1501.84 231V206.887C1497.41 215.895 1491.7 222.652 1484.71 227.156C1477.8 231.66 1469.57 233.912 1460.02 233.912C1444.33 233.912 1432.18 228.127 1423.56 216.556C1414.94 204.907 1410.63 189.569 1410.63 170.543C1410.63 150.43 1415.44 133.694 1425.07 120.337C1434.7 106.902 1448.14 100.185 1465.38 100.185C1470.04 100.185 1474.31 100.69 1478.19 101.699C1482.07 102.631 1485.8 104.107 1489.37 106.126C1492.94 108.145 1497.1 111.445 1501.84 116.027V47.0667H1536.43V231H1501.84ZM1501.84 136.529C1497.02 131.093 1492.48 127.404 1488.21 125.463C1483.94 123.521 1479.59 122.55 1475.16 122.55C1465.84 122.55 1458.85 127.055 1454.19 136.063C1449.61 144.994 1447.32 155.516 1447.32 167.631C1447.32 179.59 1449.46 189.142 1453.73 196.287C1458.08 203.354 1464.33 206.887 1472.48 206.887C1477.68 206.887 1482.81 205.101 1487.86 201.529C1492.98 197.879 1497.64 193.103 1501.84 187.201V136.529Z"/>
</mask>
<path d="M638.55 231V58.599H712.752C732.633 58.599 748.087 61.7829 759.114 68.1509C770.219 74.5189 779.034 83.9155 785.557 96.3408C792.158 108.688 795.458 123.638 795.458 141.188C795.458 158.351 792.313 173.688 786.023 187.201C779.81 200.713 770.724 211.391 758.765 219.235C746.806 227.078 730.42 231 709.607 231H638.55ZM674.428 206.538H701.22C715.199 206.538 725.877 204.363 733.254 200.014C740.709 195.666 746.573 188.327 750.844 177.998C755.193 167.592 757.367 156.021 757.367 143.285C757.367 131.093 755.27 120.298 751.077 110.902C746.883 101.505 741.059 94.3994 733.604 89.5846C726.226 84.6921 713.723 82.2459 696.095 82.2459H674.428V206.538ZM931.865 226.69C915.479 231.505 899.947 233.912 885.27 233.912C871.369 233.912 859.177 231.349 848.693 226.224C838.287 221.021 830.249 212.944 824.58 201.995C818.989 190.967 816.193 179.008 816.193 166.117C816.193 154.157 818.562 143.13 823.299 133.034C828.114 122.861 835.064 114.862 844.15 109.038C853.314 103.136 864.574 100.185 877.931 100.185C894.317 100.185 907.403 105.388 917.187 115.794C926.972 126.2 931.865 145.576 931.865 173.921H852.537C853.314 182.541 855.255 189.336 858.361 194.307C861.545 199.277 865.817 203.237 871.175 206.188C876.533 209.062 883.717 210.498 892.725 210.498C904.296 210.498 917.343 207.819 931.865 202.461V226.69ZM852.071 154.468H897.967C897.967 142.742 895.987 134.354 892.026 129.307C888.143 124.259 883.096 121.735 876.883 121.735C870.127 121.735 864.574 124.531 860.225 130.122C855.876 135.636 853.158 143.751 852.071 154.468ZM967.51 231V47.0667H1001.99V231H967.51ZM1149.23 226.69C1132.84 231.505 1117.31 233.912 1102.64 233.912C1088.73 233.912 1076.54 231.349 1066.06 226.224C1055.65 221.021 1047.61 212.944 1041.95 201.995C1036.35 190.967 1033.56 179.008 1033.56 166.117C1033.56 154.157 1035.93 143.13 1040.66 133.034C1045.48 122.861 1052.43 114.862 1061.52 109.038C1070.68 103.136 1081.94 100.185 1095.3 100.185C1111.68 100.185 1124.77 105.388 1134.55 115.794C1144.34 126.2 1149.23 145.576 1149.23 173.921H1069.9C1070.68 182.541 1072.62 189.336 1075.73 194.307C1078.91 199.277 1083.18 203.237 1088.54 206.188C1093.9 209.062 1101.08 210.498 1110.09 210.498C1121.66 210.498 1134.71 207.819 1149.23 202.461V226.69ZM1069.44 154.468H1115.33C1115.33 142.742 1113.35 134.354 1109.39 129.307C1105.51 124.259 1100.46 121.735 1094.25 121.735C1087.49 121.735 1081.94 124.531 1077.59 130.122C1073.24 135.636 1070.52 143.751 1069.44 154.468ZM1250.81 230.301C1242.58 232.708 1236.09 233.912 1231.35 233.912C1220.09 233.912 1211.36 232.32 1205.14 229.136C1198.93 225.952 1194.27 221.642 1191.17 216.206C1188.06 210.692 1186.51 202.616 1186.51 191.977V124.647H1172.18V103.097H1186.51V81.5469L1220.99 77.5864V103.097H1248.36V124.647H1220.99V187.434C1220.99 196.675 1222.62 202.927 1225.88 206.188C1229.14 209.372 1233.92 210.964 1240.21 210.964C1243.16 210.964 1246.69 210.421 1250.81 209.333V230.301ZM1385.7 226.69C1369.31 231.505 1353.78 233.912 1339.1 233.912C1325.2 233.912 1313.01 231.349 1302.53 226.224C1292.12 221.021 1284.08 212.944 1278.41 201.995C1272.82 190.967 1270.03 179.008 1270.03 166.117C1270.03 154.157 1272.4 143.13 1277.13 133.034C1281.95 122.861 1288.9 114.862 1297.98 109.038C1307.15 103.136 1318.41 100.185 1331.77 100.185C1348.15 100.185 1361.24 105.388 1371.02 115.794C1380.81 126.2 1385.7 145.576 1385.7 173.921H1306.37C1307.15 182.541 1309.09 189.336 1312.2 194.307C1315.38 199.277 1319.65 203.237 1325.01 206.188C1330.37 209.062 1337.55 210.498 1346.56 210.498C1358.13 210.498 1371.18 207.819 1385.7 202.461V226.69ZM1305.91 154.468H1351.8C1351.8 142.742 1349.82 134.354 1345.86 129.307C1341.98 124.259 1336.93 121.735 1330.72 121.735C1323.96 121.735 1318.41 124.531 1314.06 130.122C1309.71 135.636 1306.99 143.751 1305.91 154.468ZM1501.84 231V206.887C1497.41 215.895 1491.7 222.652 1484.71 227.156C1477.8 231.66 1469.57 233.912 1460.02 233.912C1444.33 233.912 1432.18 228.127 1423.56 216.556C1414.94 204.907 1410.63 189.569 1410.63 170.543C1410.63 150.43 1415.44 133.694 1425.07 120.337C1434.7 106.902 1448.14 100.185 1465.38 100.185C1470.04 100.185 1474.31 100.69 1478.19 101.699C1482.07 102.631 1485.8 104.107 1489.37 106.126C1492.94 108.145 1497.1 111.445 1501.84 116.027V47.0667H1536.43V231H1501.84ZM1501.84 136.529C1497.02 131.093 1492.48 127.404 1488.21 125.463C1483.94 123.521 1479.59 122.55 1475.16 122.55C1465.84 122.55 1458.85 127.055 1454.19 136.063C1449.61 144.994 1447.32 155.516 1447.32 167.631C1447.32 179.59 1449.46 189.142 1453.73 196.287C1458.08 203.354 1464.33 206.887 1472.48 206.887C1477.68 206.887 1482.81 205.101 1487.86 201.529C1492.98 197.879 1497.64 193.103 1501.84 187.201V136.529Z" fill="#1B1B1B"/>
<path d="M638.55 231H633.55V236H638.55V231ZM638.55 58.599V53.599H633.55V58.599H638.55ZM759.114 68.1509L756.614 72.4808L756.621 72.4846L756.627 72.4884L759.114 68.1509ZM785.557 96.3408L781.13 98.665L781.139 98.6816L781.148 98.6981L785.557 96.3408ZM786.023 187.201L781.49 185.091L781.485 185.101L781.48 185.112L786.023 187.201ZM674.428 206.538H669.428V211.538H674.428V206.538ZM733.254 200.014L730.735 195.696L730.725 195.701L730.715 195.707L733.254 200.014ZM750.844 177.998L746.23 176.07L746.227 176.079L746.223 176.088L750.844 177.998ZM751.077 110.902L746.511 112.939L751.077 110.902ZM733.604 89.5846L730.84 93.7515L730.866 93.7683L730.891 93.7847L733.604 89.5846ZM674.428 82.2459V77.2459H669.428V82.2459H674.428ZM643.55 231V58.599H633.55V231H643.55ZM638.55 63.599H712.752V53.599H638.55V63.599ZM712.752 63.599C732.204 63.599 746.659 66.732 756.614 72.4808L761.615 63.821C749.515 56.8339 733.062 53.599 712.752 53.599V63.599ZM756.627 72.4884C766.829 78.3382 775.005 86.9975 781.13 98.665L789.984 94.0166C783.063 80.8335 773.61 70.6995 761.602 63.8134L756.627 72.4884ZM781.148 98.6981C787.275 110.159 790.458 124.256 790.458 141.188H800.458C800.458 123.02 797.041 107.218 789.966 93.9835L781.148 98.6981ZM790.458 141.188C790.458 157.732 787.429 172.332 781.49 185.091L790.556 189.311C797.197 175.044 800.458 158.97 800.458 141.188H790.458ZM781.48 185.112C775.643 197.808 767.165 207.746 756.023 215.054L761.507 223.416C774.283 215.037 783.978 203.619 790.566 189.289L781.48 185.112ZM756.023 215.054C745.17 222.171 729.866 226 709.607 226V236C730.974 236 748.441 231.985 761.507 223.416L756.023 215.054ZM709.607 226H638.55V236H709.607V226ZM674.428 211.538H701.22V201.538H674.428V211.538ZM701.22 211.538C715.586 211.538 727.304 209.326 735.793 204.322L730.715 195.707C724.449 199.401 714.812 201.538 701.22 201.538V211.538ZM735.774 204.333C744.42 199.29 750.899 190.949 755.464 179.909L746.223 176.088C742.246 185.705 736.999 192.042 730.735 195.696L735.774 204.333ZM755.457 179.926C760.092 168.835 762.367 156.598 762.367 143.285H752.367C752.367 155.444 750.293 166.349 746.23 176.07L755.457 179.926ZM762.367 143.285C762.367 130.519 760.17 119.009 755.643 108.864L746.511 112.939C750.37 121.587 752.367 131.667 752.367 143.285H762.367ZM755.643 108.864C751.119 98.7266 744.709 90.8048 736.316 85.3844L730.891 93.7847C737.408 97.9939 742.648 104.284 746.511 112.939L755.643 108.864ZM736.367 85.4176C727.689 79.6625 713.9 77.2459 696.095 77.2459V87.2459C713.547 87.2459 724.764 89.7217 730.84 93.7515L736.367 85.4176ZM696.095 77.2459H674.428V87.2459H696.095V77.2459ZM669.428 82.2459V206.538H679.428V82.2459H669.428ZM931.865 226.69L933.274 231.487L936.865 230.432V226.69H931.865ZM848.693 226.224L846.457 230.696L846.477 230.706L846.497 230.716L848.693 226.224ZM824.58 201.995L820.121 204.256L820.13 204.275L820.14 204.294L824.58 201.995ZM823.299 133.034L818.779 130.895L818.776 130.903L818.772 130.91L823.299 133.034ZM844.15 109.038L846.848 113.247L846.857 113.241L844.15 109.038ZM931.865 173.921V178.921H936.865V173.921H931.865ZM852.537 173.921V168.921H847.066L847.557 174.37L852.537 173.921ZM858.361 194.307L854.121 196.957L854.136 196.98L854.151 197.004L858.361 194.307ZM871.175 206.188L868.763 210.568L868.788 210.581L868.812 210.595L871.175 206.188ZM931.865 202.461H936.865V195.286L930.134 197.77L931.865 202.461ZM852.071 154.468L847.097 153.963L846.538 159.468H852.071V154.468ZM897.967 154.468V159.468H902.967V154.468H897.967ZM892.026 129.307L888.063 132.355L888.078 132.374L888.093 132.393L892.026 129.307ZM860.225 130.122L864.151 133.219L864.162 133.205L864.172 133.192L860.225 130.122ZM930.455 221.893C914.454 226.595 899.4 228.912 885.27 228.912V238.912C900.495 238.912 916.504 236.415 933.274 231.487L930.455 221.893ZM885.27 228.912C871.986 228.912 860.57 226.465 850.889 221.732L846.497 230.716C857.783 236.234 870.752 238.912 885.27 238.912V228.912ZM850.929 221.752C841.527 217.051 834.234 209.766 829.02 199.696L820.14 204.294C826.264 216.123 835.046 224.991 846.457 230.696L850.929 221.752ZM829.04 199.734C823.819 189.437 821.193 178.257 821.193 166.117H811.193C811.193 179.759 814.159 192.497 820.121 204.256L829.04 199.734ZM821.193 166.117C821.193 154.837 823.422 144.542 827.825 135.158L818.772 130.91C813.701 141.718 811.193 153.477 811.193 166.117H821.193ZM827.818 135.173C832.25 125.809 838.586 118.544 846.848 113.247L841.452 104.829C831.542 111.181 823.977 119.913 818.779 130.895L827.818 135.173ZM846.857 113.241C855.049 107.966 865.317 105.185 877.931 105.185V95.1849C863.831 95.1849 851.579 98.306 841.443 104.834L846.857 113.241ZM877.931 105.185C893.16 105.185 904.847 109.969 913.545 119.219L920.83 112.369C909.958 100.807 895.474 95.1849 877.931 95.1849V105.185ZM913.545 119.219C921.926 128.132 926.865 145.767 926.865 173.921H936.865C936.865 145.385 932.019 124.268 920.83 112.369L913.545 119.219ZM931.865 168.921H852.537V178.921H931.865V168.921ZM847.557 174.37C848.373 183.428 850.448 191.08 854.121 196.957L862.601 191.657C860.062 187.593 858.254 181.655 857.517 173.473L847.557 174.37ZM854.151 197.004C857.802 202.702 862.702 207.23 868.763 210.568L873.587 201.808C868.931 199.244 865.289 195.851 862.572 191.609L854.151 197.004ZM868.812 210.595C875.164 214.001 883.259 215.498 892.725 215.498V205.498C884.174 205.498 877.903 204.123 873.538 201.782L868.812 210.595ZM892.725 215.498C905.049 215.498 918.695 212.65 933.596 207.151L930.134 197.77C915.99 202.989 903.543 205.498 892.725 205.498V215.498ZM926.865 202.461V226.69H936.865V202.461H926.865ZM852.071 159.468H897.967V149.468H852.071V159.468ZM902.967 154.468C902.967 142.436 900.985 132.625 895.96 126.22L888.093 132.393C890.988 136.084 892.967 143.047 892.967 154.468H902.967ZM895.989 126.258C891.188 120.016 884.693 116.735 876.883 116.735V126.735C881.498 126.735 885.099 128.502 888.063 132.355L895.989 126.258ZM876.883 116.735C868.499 116.735 861.521 120.312 856.278 127.052L864.172 133.192C867.627 128.75 871.754 126.735 876.883 126.735V116.735ZM856.299 127.026C851.126 133.585 848.232 142.768 847.097 153.963L857.046 154.973C858.084 144.734 860.627 137.687 864.151 133.219L856.299 127.026ZM967.51 231H962.51V236H967.51V231ZM967.51 47.0667V42.0667H962.51V47.0667H967.51ZM1001.99 47.0667H1006.99V42.0667H1001.99V47.0667ZM1001.99 231V236H1006.99V231H1001.99ZM972.51 231V47.0667H962.51V231H972.51ZM967.51 52.0667H1001.99V42.0667H967.51V52.0667ZM996.99 47.0667V231H1006.99V47.0667H996.99ZM1001.99 226H967.51V236H1001.99V226ZM1149.23 226.69L1150.64 231.487L1154.23 230.432V226.69H1149.23ZM1066.06 226.224L1063.82 230.696L1063.84 230.706L1063.86 230.716L1066.06 226.224ZM1041.95 201.995L1037.49 204.256L1037.5 204.275L1037.51 204.294L1041.95 201.995ZM1040.66 133.034L1036.14 130.895L1036.14 130.903L1036.14 130.91L1040.66 133.034ZM1061.52 109.038L1064.21 113.247L1064.22 113.241L1061.52 109.038ZM1149.23 173.921V178.921H1154.23V173.921H1149.23ZM1069.9 173.921V168.921H1064.43L1064.92 174.37L1069.9 173.921ZM1075.73 194.307L1071.49 196.957L1071.5 196.98L1071.52 197.004L1075.73 194.307ZM1088.54 206.188L1086.13 210.568L1086.15 210.581L1086.18 210.595L1088.54 206.188ZM1149.23 202.461H1154.23V195.286L1147.5 197.77L1149.23 202.461ZM1069.44 154.468L1064.46 153.963L1063.9 159.468H1069.44V154.468ZM1115.33 154.468V159.468H1120.33V154.468H1115.33ZM1109.39 129.307L1105.43 132.355L1105.44 132.374L1105.46 132.393L1109.39 129.307ZM1077.59 130.122L1081.52 133.219L1081.53 133.205L1081.54 133.192L1077.59 130.122ZM1147.82 221.893C1131.82 226.595 1116.76 228.912 1102.64 228.912V238.912C1117.86 238.912 1133.87 236.415 1150.64 231.487L1147.82 221.893ZM1102.64 228.912C1089.35 228.912 1077.94 226.465 1068.25 221.732L1063.86 230.716C1075.15 236.234 1088.12 238.912 1102.64 238.912V228.912ZM1068.29 221.752C1058.89 217.051 1051.6 209.766 1046.39 199.696L1037.51 204.294C1043.63 216.123 1052.41 224.991 1063.82 230.696L1068.29 221.752ZM1046.4 199.734C1041.18 189.437 1038.56 178.257 1038.56 166.117H1028.56C1028.56 179.759 1031.52 192.497 1037.49 204.256L1046.4 199.734ZM1038.56 166.117C1038.56 154.837 1040.79 144.542 1045.19 135.158L1036.14 130.91C1031.07 141.718 1028.56 153.477 1028.56 166.117H1038.56ZM1045.18 135.173C1049.62 125.809 1055.95 118.544 1064.21 113.247L1058.82 104.829C1048.91 111.181 1041.34 119.913 1036.14 130.895L1045.18 135.173ZM1064.22 113.241C1072.41 107.966 1082.68 105.185 1095.3 105.185V95.1849C1081.2 95.1849 1068.94 98.306 1058.81 104.834L1064.22 113.241ZM1095.3 105.185C1110.53 105.185 1122.21 109.969 1130.91 119.219L1138.2 112.369C1127.32 100.807 1112.84 95.1849 1095.3 95.1849V105.185ZM1130.91 119.219C1139.29 128.132 1144.23 145.767 1144.23 173.921H1154.23C1154.23 145.385 1149.38 124.268 1138.2 112.369L1130.91 119.219ZM1149.23 168.921H1069.9V178.921H1149.23V168.921ZM1064.92 174.37C1065.74 183.428 1067.81 191.08 1071.49 196.957L1079.97 191.657C1077.43 187.593 1075.62 181.655 1074.88 173.473L1064.92 174.37ZM1071.52 197.004C1075.17 202.702 1080.07 207.23 1086.13 210.568L1090.95 201.808C1086.3 199.244 1082.65 195.851 1079.94 191.609L1071.52 197.004ZM1086.18 210.595C1092.53 214.001 1100.62 215.498 1110.09 215.498V205.498C1101.54 205.498 1095.27 204.123 1090.9 201.782L1086.18 210.595ZM1110.09 215.498C1122.41 215.498 1136.06 212.65 1150.96 207.151L1147.5 197.77C1133.36 202.989 1120.91 205.498 1110.09 205.498V215.498ZM1144.23 202.461V226.69H1154.23V202.461H1144.23ZM1069.44 159.468H1115.33V149.468H1069.44V159.468ZM1120.33 154.468C1120.33 142.436 1118.35 132.625 1113.33 126.22L1105.46 132.393C1108.35 136.084 1110.33 143.047 1110.33 154.468H1120.33ZM1113.35 126.258C1108.55 120.016 1102.06 116.735 1094.25 116.735V126.735C1098.86 126.735 1102.46 128.502 1105.43 132.355L1113.35 126.258ZM1094.25 116.735C1085.86 116.735 1078.89 120.312 1073.64 127.052L1081.54 133.192C1084.99 128.75 1089.12 126.735 1094.25 126.735V116.735ZM1073.66 127.026C1068.49 133.585 1065.6 142.768 1064.46 153.963L1074.41 154.973C1075.45 144.734 1077.99 137.687 1081.52 133.219L1073.66 127.026ZM1250.81 230.301L1252.21 235.1L1255.81 234.048V230.301H1250.81ZM1205.14 229.136L1202.86 233.586L1205.14 229.136ZM1191.17 216.206L1186.81 218.66L1186.82 218.674L1186.82 218.687L1191.17 216.206ZM1186.51 124.647H1191.51V119.647H1186.51V124.647ZM1172.18 124.647H1167.18V129.647H1172.18V124.647ZM1172.18 103.097V98.0971H1167.18V103.097H1172.18ZM1186.51 103.097V108.097H1191.51V103.097H1186.51ZM1186.51 81.5469L1185.94 76.5796L1181.51 77.0884V81.5469H1186.51ZM1220.99 77.5864H1225.99V71.9792L1220.42 72.619L1220.99 77.5864ZM1220.99 103.097H1215.99V108.097H1220.99V103.097ZM1248.36 103.097H1253.36V98.0971H1248.36V103.097ZM1248.36 124.647V129.647H1253.36V124.647H1248.36ZM1220.99 124.647V119.647H1215.99V124.647H1220.99ZM1225.88 206.188L1222.34 209.724L1222.36 209.745L1222.39 209.766L1225.88 206.188ZM1250.81 209.333H1255.81V202.841L1249.53 204.499L1250.81 209.333ZM1249.4 225.502C1241.32 227.865 1235.38 228.912 1231.35 228.912V238.912C1236.8 238.912 1243.83 237.552 1252.21 235.1L1249.4 225.502ZM1231.35 228.912C1220.45 228.912 1212.63 227.353 1207.42 224.687L1202.86 233.586C1210.09 237.288 1219.73 238.912 1231.35 238.912V228.912ZM1207.42 224.687C1201.97 221.892 1198.08 218.224 1195.51 213.725L1186.82 218.687C1190.47 225.06 1195.89 230.012 1202.86 233.586L1207.42 224.687ZM1195.52 213.752C1193.03 209.336 1191.51 202.273 1191.51 191.977H1181.51C1181.51 202.959 1183.08 212.049 1186.81 218.66L1195.52 213.752ZM1191.51 191.977V124.647H1181.51V191.977H1191.51ZM1186.51 119.647H1172.18V129.647H1186.51V119.647ZM1177.18 124.647V103.097H1167.18V124.647H1177.18ZM1172.18 108.097H1186.51V98.0971H1172.18V108.097ZM1191.51 103.097V81.5469H1181.51V103.097H1191.51ZM1187.08 86.5143L1221.56 82.5537L1220.42 72.619L1185.94 76.5796L1187.08 86.5143ZM1215.99 77.5864V103.097H1225.99V77.5864H1215.99ZM1220.99 108.097H1248.36V98.0971H1220.99V108.097ZM1243.36 103.097V124.647H1253.36V103.097H1243.36ZM1248.36 119.647H1220.99V129.647H1248.36V119.647ZM1215.99 124.647V187.434H1225.99V124.647H1215.99ZM1215.99 187.434C1215.99 196.848 1217.56 204.941 1222.34 209.724L1229.41 202.653C1227.67 200.912 1225.99 196.503 1225.99 187.434H1215.99ZM1222.39 209.766C1226.89 214.162 1233.12 215.964 1240.21 215.964V205.964C1234.72 205.964 1231.39 204.582 1229.37 202.61L1222.39 209.766ZM1240.21 215.964C1243.73 215.964 1247.72 215.321 1252.08 214.168L1249.53 204.499C1245.66 205.52 1242.58 205.964 1240.21 205.964V215.964ZM1245.81 209.333V230.301H1255.81V209.333H1245.81ZM1385.7 226.69L1387.11 231.487L1390.7 230.432V226.69H1385.7ZM1302.53 226.224L1300.29 230.696L1300.31 230.706L1300.33 230.716L1302.53 226.224ZM1278.41 201.995L1273.95 204.256L1273.96 204.275L1273.97 204.294L1278.41 201.995ZM1277.13 133.034L1272.61 130.895L1272.61 130.903L1272.61 130.91L1277.13 133.034ZM1297.98 109.038L1300.68 113.247L1300.69 113.241L1297.98 109.038ZM1385.7 173.921V178.921H1390.7V173.921H1385.7ZM1306.37 173.921V168.921H1300.9L1301.39 174.37L1306.37 173.921ZM1312.2 194.307L1307.96 196.957L1307.97 196.98L1307.99 197.004L1312.2 194.307ZM1325.01 206.188L1322.6 210.568L1322.62 210.581L1322.65 210.595L1325.01 206.188ZM1385.7 202.461H1390.7V195.286L1383.97 197.77L1385.7 202.461ZM1305.91 154.468L1300.93 153.963L1300.37 159.468H1305.91V154.468ZM1351.8 154.468V159.468H1356.8V154.468H1351.8ZM1345.86 129.307L1341.9 132.355L1341.91 132.374L1341.93 132.393L1345.86 129.307ZM1314.06 130.122L1317.99 133.219L1318 133.205L1318.01 133.192L1314.06 130.122ZM1384.29 221.893C1368.29 226.595 1353.23 228.912 1339.1 228.912V238.912C1354.33 238.912 1370.34 236.415 1387.11 231.487L1384.29 221.893ZM1339.1 228.912C1325.82 228.912 1314.4 226.465 1304.72 221.732L1300.33 230.716C1311.62 236.234 1324.59 238.912 1339.1 238.912V228.912ZM1304.76 221.752C1295.36 217.051 1288.07 209.766 1282.85 199.696L1273.97 204.294C1280.1 216.123 1288.88 224.991 1300.29 230.696L1304.76 221.752ZM1282.87 199.734C1277.65 189.437 1275.03 178.257 1275.03 166.117H1265.03C1265.03 179.759 1267.99 192.497 1273.95 204.256L1282.87 199.734ZM1275.03 166.117C1275.03 154.837 1277.26 144.542 1281.66 135.158L1272.61 130.91C1267.54 141.718 1265.03 153.477 1265.03 166.117H1275.03ZM1281.65 135.173C1286.08 125.809 1292.42 118.544 1300.68 113.247L1295.29 104.829C1285.38 111.181 1277.81 119.913 1272.61 130.895L1281.65 135.173ZM1300.69 113.241C1308.88 107.966 1319.15 105.185 1331.77 105.185V95.1849C1317.67 95.1849 1305.41 98.306 1295.28 104.834L1300.69 113.241ZM1331.77 105.185C1346.99 105.185 1358.68 109.969 1367.38 119.219L1374.66 112.369C1363.79 100.807 1349.31 95.1849 1331.77 95.1849V105.185ZM1367.38 119.219C1375.76 128.132 1380.7 145.767 1380.7 173.921H1390.7C1390.7 145.385 1385.85 124.268 1374.66 112.369L1367.38 119.219ZM1385.7 168.921H1306.37V178.921H1385.7V168.921ZM1301.39 174.37C1302.21 183.428 1304.28 191.08 1307.96 196.957L1316.44 191.657C1313.9 187.593 1312.09 181.655 1311.35 173.473L1301.39 174.37ZM1307.99 197.004C1311.64 202.702 1316.54 207.23 1322.6 210.568L1327.42 201.808C1322.77 199.244 1319.12 195.851 1316.41 191.609L1307.99 197.004ZM1322.65 210.595C1329 214.001 1337.09 215.498 1346.56 215.498V205.498C1338.01 205.498 1331.74 204.123 1327.37 201.782L1322.65 210.595ZM1346.56 215.498C1358.88 215.498 1372.53 212.65 1387.43 207.151L1383.97 197.77C1369.82 202.989 1357.38 205.498 1346.56 205.498V215.498ZM1380.7 202.461V226.69H1390.7V202.461H1380.7ZM1305.91 159.468H1351.8V149.468H1305.91V159.468ZM1356.8 154.468C1356.8 142.436 1354.82 132.625 1349.79 126.22L1341.93 132.393C1344.82 136.084 1346.8 143.047 1346.8 154.468H1356.8ZM1349.82 126.258C1345.02 120.016 1338.53 116.735 1330.72 116.735V126.735C1335.33 126.735 1338.93 128.502 1341.9 132.355L1349.82 126.258ZM1330.72 116.735C1322.33 116.735 1315.36 120.312 1310.11 127.052L1318.01 133.192C1321.46 128.75 1325.59 126.735 1330.72 126.735V116.735ZM1310.13 127.026C1304.96 133.585 1302.07 142.768 1300.93 153.963L1310.88 154.973C1311.92 144.734 1314.46 137.687 1317.99 133.219L1310.13 127.026ZM1501.84 231H1496.84V236H1501.84V231ZM1501.84 206.887H1506.84L1497.35 204.682L1501.84 206.887ZM1484.71 227.156L1482 222.953L1481.99 222.96L1481.98 222.967L1484.71 227.156ZM1423.56 216.556L1419.54 219.53L1419.54 219.536L1419.55 219.543L1423.56 216.556ZM1425.07 120.337L1429.13 123.261L1429.14 123.25L1425.07 120.337ZM1478.19 101.699L1476.93 106.538L1476.98 106.55L1477.02 106.561L1478.19 101.699ZM1501.84 116.027L1498.36 119.621L1506.84 127.819V116.027H1501.84ZM1501.84 47.0667V42.0667H1496.84V47.0667H1501.84ZM1536.43 47.0667H1541.43V42.0667H1536.43V47.0667ZM1536.43 231V236H1541.43V231H1536.43ZM1501.84 136.529H1506.84V134.633L1505.58 133.214L1501.84 136.529ZM1454.19 136.063L1449.75 133.766L1449.75 133.773L1449.74 133.781L1454.19 136.063ZM1453.73 196.287L1449.44 198.852L1449.45 198.88L1449.47 198.907L1453.73 196.287ZM1487.86 201.529L1490.75 205.61L1490.75 205.606L1490.76 205.602L1487.86 201.529ZM1501.84 187.201L1505.91 190.097L1506.84 188.796V187.201H1501.84ZM1506.84 231V206.887H1496.84V231H1506.84ZM1497.35 204.682C1493.24 213.045 1488.09 219.034 1482 222.953L1487.42 231.359C1495.32 226.27 1501.58 218.746 1506.32 209.092L1497.35 204.682ZM1481.98 222.967C1476.01 226.862 1468.76 228.912 1460.02 228.912V238.912C1470.38 238.912 1479.6 236.458 1487.44 231.345L1481.98 222.967ZM1460.02 228.912C1445.75 228.912 1435.15 223.75 1427.57 213.569L1419.55 219.543C1429.2 232.503 1442.91 238.912 1460.02 238.912V228.912ZM1427.58 213.581C1419.77 203.028 1415.63 188.833 1415.63 170.543H1405.63C1405.63 190.306 1410.11 206.786 1419.54 219.53L1427.58 213.581ZM1415.63 170.543C1415.63 151.243 1420.24 135.593 1429.13 123.261L1421.02 117.413C1410.65 131.796 1405.63 149.617 1405.63 170.543H1415.63ZM1429.14 123.25C1437.78 111.19 1449.67 105.185 1465.38 105.185V95.1849C1446.61 95.1849 1431.62 102.614 1421.01 117.424L1429.14 123.25ZM1465.38 105.185C1469.68 105.185 1473.52 105.651 1476.93 106.538L1479.45 96.8601C1475.09 95.7282 1470.39 95.1849 1465.38 95.1849V105.185ZM1477.02 106.561C1480.44 107.381 1483.73 108.682 1486.91 110.479L1491.83 101.773C1487.87 99.5311 1483.7 97.8808 1479.36 96.8373L1477.02 106.561ZM1486.91 110.479C1489.96 112.202 1493.77 115.179 1498.36 119.621L1505.31 112.433C1500.43 107.711 1495.93 104.088 1491.83 101.773L1486.91 110.479ZM1506.84 116.027V47.0667H1496.84V116.027H1506.84ZM1501.84 52.0667H1536.43V42.0667H1501.84V52.0667ZM1531.43 47.0667V231H1541.43V47.0667H1531.43ZM1536.43 226H1501.84V236H1536.43V226ZM1505.58 133.214C1500.53 127.511 1495.44 123.258 1490.28 120.911L1486.14 130.014C1489.52 131.551 1493.52 134.675 1498.09 139.844L1505.58 133.214ZM1490.28 120.911C1485.4 118.692 1480.34 117.55 1475.16 117.55V127.55C1478.83 127.55 1482.48 128.35 1486.14 130.014L1490.28 120.911ZM1475.16 117.55C1469.66 117.55 1464.62 118.892 1460.22 121.726C1455.85 124.545 1452.4 128.656 1449.75 133.766L1458.63 138.36C1460.65 134.462 1463.02 131.817 1465.64 130.131C1468.23 128.461 1471.34 127.55 1475.16 127.55V117.55ZM1449.74 133.781C1444.73 143.549 1442.32 154.885 1442.32 167.631H1452.32C1452.32 156.147 1454.49 146.438 1458.64 138.345L1449.74 133.781ZM1442.32 167.631C1442.32 180.121 1444.54 190.665 1449.44 198.852L1458.02 193.721C1454.37 187.619 1452.32 179.059 1452.32 167.631H1442.32ZM1449.47 198.907C1454.71 207.421 1462.55 211.887 1472.48 211.887V201.887C1466.1 201.887 1461.44 199.286 1457.99 193.666L1449.47 198.907ZM1472.48 211.887C1478.9 211.887 1485.02 209.665 1490.75 205.61L1484.97 197.447C1480.6 200.537 1476.47 201.887 1472.48 201.887V211.887ZM1490.76 205.602C1496.4 201.583 1501.44 196.387 1505.91 190.097L1497.76 184.305C1493.84 189.819 1489.57 194.175 1484.96 197.456L1490.76 205.602ZM1506.84 187.201V136.529H1496.84V187.201H1506.84Z" fill="#DCA413" mask="url(#path-5-outside-3_8001_2)"/>
</svg>
